<?xml version="1.0" encoding="UTF-8"?><svg xmlns="http://www.w3.org/2000/svg" xmlns:xlink="http://www.w3.org/1999/xlink" stroke-dasharray="none" shape-rendering="auto" font-family="'Dialog'" width="2127" text-rendering="auto" fill-opacity="1" contentScriptType="text/ecmascript" color-interpolation="auto" color-rendering="auto" preserveAspectRatio="xMidYMid meet" font-size="12" fill="black" stroke="black" image-rendering="auto" stroke-miterlimit="10" zoomAndPan="magnify" version="1.0" stroke-linecap="square" stroke-linejoin="miter" contentStyleType="text/css" font-style="normal" height="1362" stroke-width="1" stroke-dashoffset="0" font-weight="normal" stroke-opacity="1">
<!--Generated by the Batik Graphics2D SVG Generator-->
<defs id="genericDefs"/>
<g>
<defs id="defs1">
<clipPath clipPathUnits="userSpaceOnUse" id="clipPath1">
<path d="M36 9 L2091 9 L2091 1315 L36 1315 L36 9 Z"/>
</clipPath>
<clipPath clipPathUnits="userSpaceOnUse" id="clipPath2">
<path d="M-1 -1 L2128 -1 L2128 1363 L-1 1363 L-1 -1 Z"/>
</clipPath>
<clipPath clipPathUnits="userSpaceOnUse" id="clipPath3">
<path d="M36 1313 L2091 1313 L2091 1363 L36 1363 L36 1313 Z"/>
</clipPath>
</defs>
<g fill="white" text-rendering="geometricPrecision" font-family="'Segoe UI'" stroke-linejoin="round" stroke="white" stroke-width="0" stroke-miterlimit="0">
<rect x="37" y="10" clip-path="url(#clipPath1)" width="2053" height="1304" stroke="none"/>
</g>
<g stroke-linecap="butt" fill="rgb(204,204,204)" text-rendering="geometricPrecision" font-family="'Segoe UI'" stroke-dasharray="3,3" stroke="rgb(204,204,204)">
<line clip-path="url(#clipPath1)" fill="none" x1="37" x2="2090" y1="1314" y2="1314"/>
<line clip-path="url(#clipPath1)" fill="none" x1="37" x2="2090" y1="1254" y2="1254"/>
<line clip-path="url(#clipPath1)" fill="none" x1="37" x2="2090" y1="1195" y2="1195"/>
<line clip-path="url(#clipPath1)" fill="none" x1="37" x2="2090" y1="1136" y2="1136"/>
<line clip-path="url(#clipPath1)" fill="none" x1="37" x2="2090" y1="1076" y2="1076"/>
<line clip-path="url(#clipPath1)" fill="none" x1="37" x2="2090" y1="1017" y2="1017"/>
<line clip-path="url(#clipPath1)" fill="none" x1="37" x2="2090" y1="958" y2="958"/>
<line clip-path="url(#clipPath1)" fill="none" x1="37" x2="2090" y1="899" y2="899"/>
<line clip-path="url(#clipPath1)" fill="none" x1="37" x2="2090" y1="839" y2="839"/>
<line clip-path="url(#clipPath1)" fill="none" x1="37" x2="2090" y1="780" y2="780"/>
<line clip-path="url(#clipPath1)" fill="none" x1="37" x2="2090" y1="721" y2="721"/>
<line clip-path="url(#clipPath1)" fill="none" x1="37" x2="2090" y1="662" y2="662"/>
<line clip-path="url(#clipPath1)" fill="none" x1="37" x2="2090" y1="602" y2="602"/>
<line clip-path="url(#clipPath1)" fill="none" x1="37" x2="2090" y1="543" y2="543"/>
<line clip-path="url(#clipPath1)" fill="none" x1="37" x2="2090" y1="484" y2="484"/>
<line clip-path="url(#clipPath1)" fill="none" x1="37" x2="2090" y1="424" y2="424"/>
<line clip-path="url(#clipPath1)" fill="none" x1="37" x2="2090" y1="365" y2="365"/>
<line clip-path="url(#clipPath1)" fill="none" x1="37" x2="2090" y1="306" y2="306"/>
<line clip-path="url(#clipPath1)" fill="none" x1="37" x2="2090" y1="247" y2="247"/>
<line clip-path="url(#clipPath1)" fill="none" x1="37" x2="2090" y1="187" y2="187"/>
<line clip-path="url(#clipPath1)" fill="none" x1="37" x2="2090" y1="128" y2="128"/>
<line clip-path="url(#clipPath1)" fill="none" x1="37" x2="2090" y1="69" y2="69"/>
<line clip-path="url(#clipPath1)" fill="none" x1="37" x2="2090" y1="10" y2="10"/>
<rect x="2067" y="1314" clip-path="url(#clipPath1)" fill="olive" width="11" height="1" stroke="none"/>
<rect x="2049" y="1314" clip-path="url(#clipPath1)" fill="aqua" width="11" height="1" stroke="none"/>
<rect x="2032" y="1314" clip-path="url(#clipPath1)" fill="teal" width="11" height="1" stroke="none"/>
<rect x="2015" y="1314" clip-path="url(#clipPath1)" fill="rgb(160,0,0)" width="11" height="1" stroke="none"/>
<rect x="1998" y="1314" clip-path="url(#clipPath1)" fill="rgb(169,169,169)" width="11" height="1" stroke="none"/>
<rect x="1981" y="1314" clip-path="url(#clipPath1)" fill="green" width="11" height="1" stroke="none"/>
<rect x="1964" y="1314" clip-path="url(#clipPath1)" fill="rgb(255,165,0)" width="11" height="1" stroke="none"/>
<rect x="1947" y="1314" clip-path="url(#clipPath1)" fill="rgb(0,100,0)" width="11" height="1" stroke="none"/>
<rect x="1929" y="1314" clip-path="url(#clipPath1)" fill="rgb(238,0,0)" width="11" height="1" stroke="none"/>
<rect x="1912" y="1314" clip-path="url(#clipPath1)" fill="rgb(0,0,139)" width="11" height="1" stroke="none"/>
<rect x="1859" y="1314" clip-path="url(#clipPath1)" fill="olive" width="11" height="1" stroke="none"/>
<rect x="1842" y="1314" clip-path="url(#clipPath1)" fill="aqua" width="11" height="1" stroke="none"/>
<rect x="1825" y="1314" clip-path="url(#clipPath1)" fill="teal" width="11" height="1" stroke="none"/>
<rect x="1808" y="1314" clip-path="url(#clipPath1)" fill="rgb(160,0,0)" width="11" height="1" stroke="none"/>
<rect x="1791" y="1314" clip-path="url(#clipPath1)" fill="rgb(169,169,169)" width="11" height="1" stroke="none"/>
<rect x="1774" y="1314" clip-path="url(#clipPath1)" fill="green" width="11" height="1" stroke="none"/>
<rect x="1757" y="1314" clip-path="url(#clipPath1)" fill="rgb(255,165,0)" width="11" height="1" stroke="none"/>
<rect x="1739" y="1314" clip-path="url(#clipPath1)" fill="rgb(0,100,0)" width="11" height="1" stroke="none"/>
<rect x="1722" y="1314" clip-path="url(#clipPath1)" fill="rgb(238,0,0)" width="11" height="1" stroke="none"/>
<rect x="1705" y="1314" clip-path="url(#clipPath1)" fill="rgb(0,0,139)" width="11" height="1" stroke="none"/>
<rect x="1652" y="1314" clip-path="url(#clipPath1)" fill="olive" width="11" height="1" stroke="none"/>
<rect x="1635" y="1314" clip-path="url(#clipPath1)" fill="aqua" width="11" height="1" stroke="none"/>
<rect x="1618" y="1314" clip-path="url(#clipPath1)" fill="teal" width="11" height="1" stroke="none"/>
<rect x="1601" y="1314" clip-path="url(#clipPath1)" fill="rgb(160,0,0)" width="11" height="1" stroke="none"/>
<rect x="1584" y="1314" clip-path="url(#clipPath1)" fill="rgb(169,169,169)" width="11" height="1" stroke="none"/>
<rect x="1567" y="1314" clip-path="url(#clipPath1)" fill="green" width="11" height="1" stroke="none"/>
<rect x="1549" y="1314" clip-path="url(#clipPath1)" fill="rgb(255,165,0)" width="11" height="1" stroke="none"/>
<rect x="1532" y="1314" clip-path="url(#clipPath1)" fill="rgb(0,100,0)" width="11" height="1" stroke="none"/>
<rect x="1515" y="1314" clip-path="url(#clipPath1)" fill="rgb(238,0,0)" width="11" height="1" stroke="none"/>
<rect x="1498" y="1314" clip-path="url(#clipPath1)" fill="rgb(0,0,139)" width="11" height="1" stroke="none"/>
<rect x="1445" y="1314" clip-path="url(#clipPath1)" fill="olive" width="11" height="1" stroke="none"/>
<rect x="1428" y="1314" clip-path="url(#clipPath1)" fill="aqua" width="11" height="1" stroke="none"/>
<rect x="1411" y="1314" clip-path="url(#clipPath1)" fill="teal" width="11" height="1" stroke="none"/>
<rect x="1394" y="1314" clip-path="url(#clipPath1)" fill="rgb(160,0,0)" width="11" height="1" stroke="none"/>
<rect x="1377" y="1314" clip-path="url(#clipPath1)" fill="rgb(169,169,169)" width="11" height="1" stroke="none"/>
<rect x="1359" y="1314" clip-path="url(#clipPath1)" fill="green" width="11" height="1" stroke="none"/>
<rect x="1342" y="1314" clip-path="url(#clipPath1)" fill="rgb(255,165,0)" width="11" height="1" stroke="none"/>
<rect x="1325" y="1314" clip-path="url(#clipPath1)" fill="rgb(0,100,0)" width="11" height="1" stroke="none"/>
<rect x="1308" y="1314" clip-path="url(#clipPath1)" fill="rgb(238,0,0)" width="11" height="1" stroke="none"/>
<rect x="1291" y="1314" clip-path="url(#clipPath1)" fill="rgb(0,0,139)" width="11" height="1" stroke="none"/>
<rect x="1238" y="1314" clip-path="url(#clipPath1)" fill="olive" width="11" height="1" stroke="none"/>
<rect x="1221" y="1314" clip-path="url(#clipPath1)" fill="aqua" width="11" height="1" stroke="none"/>
<rect x="1204" y="1314" clip-path="url(#clipPath1)" fill="teal" width="11" height="1" stroke="none"/>
<rect x="1187" y="1314" clip-path="url(#clipPath1)" fill="rgb(160,0,0)" width="11" height="1" stroke="none"/>
<rect x="1169" y="1314" clip-path="url(#clipPath1)" fill="rgb(169,169,169)" width="11" height="1" stroke="none"/>
<rect x="1152" y="1314" clip-path="url(#clipPath1)" fill="green" width="11" height="1" stroke="none"/>
<rect x="1135" y="1314" clip-path="url(#clipPath1)" fill="rgb(255,165,0)" width="11" height="1" stroke="none"/>
<rect x="1118" y="1314" clip-path="url(#clipPath1)" fill="rgb(0,100,0)" width="11" height="1" stroke="none"/>
<rect x="1101" y="1314" clip-path="url(#clipPath1)" fill="rgb(238,0,0)" width="11" height="1" stroke="none"/>
<rect x="1084" y="1314" clip-path="url(#clipPath1)" fill="rgb(0,0,139)" width="11" height="1" stroke="none"/>
<rect x="1031" y="1314" clip-path="url(#clipPath1)" fill="olive" width="11" height="1" stroke="none"/>
<rect x="1014" y="1314" clip-path="url(#clipPath1)" fill="aqua" width="11" height="1" stroke="none"/>
<rect x="997" y="1314" clip-path="url(#clipPath1)" fill="teal" width="11" height="1" stroke="none"/>
<rect x="979" y="1314" clip-path="url(#clipPath1)" fill="rgb(160,0,0)" width="11" height="1" stroke="none"/>
<rect x="962" y="1314" clip-path="url(#clipPath1)" fill="rgb(169,169,169)" width="11" height="1" stroke="none"/>
<rect x="945" y="1314" clip-path="url(#clipPath1)" fill="green" width="11" height="1" stroke="none"/>
<rect x="928" y="1314" clip-path="url(#clipPath1)" fill="rgb(255,165,0)" width="11" height="1" stroke="none"/>
<rect x="911" y="1314" clip-path="url(#clipPath1)" fill="rgb(0,100,0)" width="11" height="1" stroke="none"/>
<rect x="894" y="1314" clip-path="url(#clipPath1)" fill="rgb(238,0,0)" width="11" height="1" stroke="none"/>
<rect x="877" y="1314" clip-path="url(#clipPath1)" fill="rgb(0,0,139)" width="11" height="1" stroke="none"/>
<rect x="824" y="1314" clip-path="url(#clipPath1)" fill="olive" width="11" height="1" stroke="none"/>
<rect x="807" y="1314" clip-path="url(#clipPath1)" fill="aqua" width="11" height="1" stroke="none"/>
<rect x="789" y="1314" clip-path="url(#clipPath1)" fill="teal" width="11" height="1" stroke="none"/>
<rect x="772" y="1314" clip-path="url(#clipPath1)" fill="rgb(160,0,0)" width="11" height="1" stroke="none"/>
<rect x="755" y="1314" clip-path="url(#clipPath1)" fill="rgb(169,169,169)" width="11" height="1" stroke="none"/>
<rect x="738" y="1314" clip-path="url(#clipPath1)" fill="green" width="11" height="1" stroke="none"/>
<rect x="721" y="1314" clip-path="url(#clipPath1)" fill="rgb(255,165,0)" width="11" height="1" stroke="none"/>
<rect x="704" y="1314" clip-path="url(#clipPath1)" fill="rgb(0,100,0)" width="11" height="1" stroke="none"/>
<rect x="687" y="1314" clip-path="url(#clipPath1)" fill="rgb(238,0,0)" width="11" height="1" stroke="none"/>
<rect x="669" y="1314" clip-path="url(#clipPath1)" fill="rgb(0,0,139)" width="11" height="1" stroke="none"/>
<rect x="617" y="1314" clip-path="url(#clipPath1)" fill="olive" width="11" height="1" stroke="none"/>
<rect x="599" y="1314" clip-path="url(#clipPath1)" fill="aqua" width="11" height="1" stroke="none"/>
<rect x="582" y="1314" clip-path="url(#clipPath1)" fill="teal" width="11" height="1" stroke="none"/>
<rect x="565" y="1017" clip-path="url(#clipPath1)" fill="rgb(160,0,0)" width="11" height="296" stroke="none"/>
<rect x="565" y="1017" clip-path="url(#clipPath1)" fill="none" width="11" stroke-dasharray="none" height="296"/>
<rect x="548" y="1314" clip-path="url(#clipPath1)" fill="rgb(169,169,169)" width="11" stroke-dasharray="none" height="1" stroke="none"/>
<rect x="531" y="1314" clip-path="url(#clipPath1)" fill="green" width="11" stroke-dasharray="none" height="1" stroke="none"/>
<rect x="514" y="1314" clip-path="url(#clipPath1)" fill="rgb(255,165,0)" width="11" stroke-dasharray="none" height="1" stroke="none"/>
<rect x="497" y="1314" clip-path="url(#clipPath1)" fill="rgb(0,100,0)" width="11" stroke-dasharray="none" height="1" stroke="none"/>
<rect x="479" y="1017" clip-path="url(#clipPath1)" fill="rgb(238,0,0)" width="11" stroke-dasharray="none" height="296" stroke="none"/>
<rect x="479" y="1017" clip-path="url(#clipPath1)" fill="none" width="11" stroke-dasharray="none" height="296"/>
<rect x="462" y="1314" clip-path="url(#clipPath1)" fill="rgb(0,0,139)" width="11" stroke-dasharray="none" height="1" stroke="none"/>
<rect x="409" y="1314" clip-path="url(#clipPath1)" fill="olive" width="11" stroke-dasharray="none" height="1" stroke="none"/>
<rect x="392" y="1314" clip-path="url(#clipPath1)" fill="aqua" width="11" stroke-dasharray="none" height="1" stroke="none"/>
<rect x="375" y="1314" clip-path="url(#clipPath1)" fill="teal" width="11" stroke-dasharray="none" height="1" stroke="none"/>
<rect x="358" y="1314" clip-path="url(#clipPath1)" fill="rgb(160,0,0)" width="11" stroke-dasharray="none" height="1" stroke="none"/>
<rect x="341" y="1314" clip-path="url(#clipPath1)" fill="rgb(169,169,169)" width="11" stroke-dasharray="none" height="1" stroke="none"/>
<rect x="324" y="1314" clip-path="url(#clipPath1)" fill="green" width="11" stroke-dasharray="none" height="1" stroke="none"/>
<rect x="307" y="1314" clip-path="url(#clipPath1)" fill="rgb(255,165,0)" width="11" stroke-dasharray="none" height="1" stroke="none"/>
<rect x="289" y="1314" clip-path="url(#clipPath1)" fill="rgb(0,100,0)" width="11" stroke-dasharray="none" height="1" stroke="none"/>
<rect x="272" y="1314" clip-path="url(#clipPath1)" fill="rgb(238,0,0)" width="11" stroke-dasharray="none" height="1" stroke="none"/>
<rect x="255" y="1314" clip-path="url(#clipPath1)" fill="rgb(0,0,139)" width="11" stroke-dasharray="none" height="1" stroke="none"/>
<rect x="202" y="1314" clip-path="url(#clipPath1)" fill="olive" width="11" stroke-dasharray="none" height="1" stroke="none"/>
<rect x="185" y="1314" clip-path="url(#clipPath1)" fill="aqua" width="11" stroke-dasharray="none" height="1" stroke="none"/>
<rect x="168" y="1314" clip-path="url(#clipPath1)" fill="teal" width="11" stroke-dasharray="none" height="1" stroke="none"/>
<rect x="151" y="1314" clip-path="url(#clipPath1)" fill="rgb(160,0,0)" width="11" stroke-dasharray="none" height="1" stroke="none"/>
<rect x="134" y="1314" clip-path="url(#clipPath1)" fill="rgb(169,169,169)" width="11" stroke-dasharray="none" height="1" stroke="none"/>
<rect x="117" y="128" clip-path="url(#clipPath1)" fill="green" width="11" stroke-dasharray="none" height="1185" stroke="none"/>
<rect x="117" y="128" clip-path="url(#clipPath1)" fill="none" width="11" stroke-dasharray="none" height="1185"/>
<rect x="99" y="128" clip-path="url(#clipPath1)" fill="rgb(255,165,0)" width="11" stroke-dasharray="none" height="1185" stroke="none"/>
<rect x="99" y="128" clip-path="url(#clipPath1)" fill="none" width="11" stroke-dasharray="none" height="1185"/>
<rect x="82" y="128" clip-path="url(#clipPath1)" fill="rgb(0,100,0)" width="11" stroke-dasharray="none" height="1185" stroke="none"/>
<rect x="82" y="128" clip-path="url(#clipPath1)" fill="none" width="11" stroke-dasharray="none" height="1185"/>
<rect x="65" y="128" clip-path="url(#clipPath1)" fill="rgb(238,0,0)" width="11" stroke-dasharray="none" height="1185" stroke="none"/>
<rect x="65" y="128" clip-path="url(#clipPath1)" fill="none" width="11" stroke-dasharray="none" height="1185"/>
<rect x="48" y="128" clip-path="url(#clipPath1)" fill="rgb(0,0,139)" width="11" stroke-dasharray="none" height="1185" stroke="none"/>
<rect x="48" y="128" clip-path="url(#clipPath1)" fill="none" width="11" stroke-dasharray="none" height="1185"/>
<rect x="37" y="10" clip-path="url(#clipPath2)" fill="none" width="2053" stroke-dasharray="none" height="1304" stroke="black"/>
<line clip-path="url(#clipPath2)" fill="none" x1="38" x2="2089" y1="1314" y2="1314" stroke-dasharray="none"/>
</g>
<g text-rendering="geometricPrecision" font-size="13" font-family="'Arial'" stroke-linecap="butt">
<line clip-path="url(#clipPath2)" fill="none" x1="35" x2="35" y1="10" y2="1314"/>
<line clip-path="url(#clipPath2)" fill="none" x1="2092" x2="2092" y1="10" y2="1314"/>
<line clip-path="url(#clipPath2)" fill="none" x1="31" x2="35" y1="1314" y2="1314"/>
<line clip-path="url(#clipPath2)" fill="none" x1="2096" x2="2092" y1="1314" y2="1314"/>
<text x="23" font-size="10" y="1315" clip-path="url(#clipPath2)" stroke="none" xml:space="preserve">0</text>
<text x="2099" font-size="10" y="1315" clip-path="url(#clipPath2)" stroke="none" xml:space="preserve">0</text>
<line clip-path="url(#clipPath2)" fill="none" x1="33" x2="35" y1="1284" y2="1284"/>
<line clip-path="url(#clipPath2)" fill="none" x1="2094" x2="2092" y1="1284" y2="1284"/>
<line clip-path="url(#clipPath2)" fill="none" x1="31" x2="35" y1="1254" y2="1254"/>
<line clip-path="url(#clipPath2)" fill="none" x1="2096" x2="2092" y1="1254" y2="1254"/>
<text x="9" font-size="10" y="1255" clip-path="url(#clipPath2)" stroke="none" xml:space="preserve">0.2</text>
<text x="2099" font-size="10" y="1255" clip-path="url(#clipPath2)" stroke="none" xml:space="preserve">0.2</text>
<line clip-path="url(#clipPath2)" fill="none" x1="33" x2="35" y1="1225" y2="1225"/>
<line clip-path="url(#clipPath2)" fill="none" x1="2094" x2="2092" y1="1225" y2="1225"/>
<line clip-path="url(#clipPath2)" fill="none" x1="31" x2="35" y1="1195" y2="1195"/>
<line clip-path="url(#clipPath2)" fill="none" x1="2096" x2="2092" y1="1195" y2="1195"/>
<text x="9" font-size="10" y="1196" clip-path="url(#clipPath2)" stroke="none" xml:space="preserve">0.4</text>
<text x="2099" font-size="10" y="1196" clip-path="url(#clipPath2)" stroke="none" xml:space="preserve">0.4</text>
<line clip-path="url(#clipPath2)" fill="none" x1="33" x2="35" y1="1165" y2="1165"/>
<line clip-path="url(#clipPath2)" fill="none" x1="2094" x2="2092" y1="1165" y2="1165"/>
<line clip-path="url(#clipPath2)" fill="none" x1="31" x2="35" y1="1136" y2="1136"/>
<line clip-path="url(#clipPath2)" fill="none" x1="2096" x2="2092" y1="1136" y2="1136"/>
<text x="9" font-size="10" y="1137" clip-path="url(#clipPath2)" stroke="none" xml:space="preserve">0.6</text>
<text x="2099" font-size="10" y="1137" clip-path="url(#clipPath2)" stroke="none" xml:space="preserve">0.6</text>
<line clip-path="url(#clipPath2)" fill="none" x1="33" x2="35" y1="1106" y2="1106"/>
<line clip-path="url(#clipPath2)" fill="none" x1="2094" x2="2092" y1="1106" y2="1106"/>
<line clip-path="url(#clipPath2)" fill="none" x1="31" x2="35" y1="1076" y2="1076"/>
<line clip-path="url(#clipPath2)" fill="none" x1="2096" x2="2092" y1="1076" y2="1076"/>
<text x="9" font-size="10" y="1077" clip-path="url(#clipPath2)" stroke="none" xml:space="preserve">0.8</text>
<text x="2099" font-size="10" y="1077" clip-path="url(#clipPath2)" stroke="none" xml:space="preserve">0.8</text>
<line clip-path="url(#clipPath2)" fill="none" x1="33" x2="35" y1="1047" y2="1047"/>
<line clip-path="url(#clipPath2)" fill="none" x1="2094" x2="2092" y1="1047" y2="1047"/>
<line clip-path="url(#clipPath2)" fill="none" x1="31" x2="35" y1="1017" y2="1017"/>
<line clip-path="url(#clipPath2)" fill="none" x1="2096" x2="2092" y1="1017" y2="1017"/>
<text x="9" font-size="10" y="1018" clip-path="url(#clipPath2)" stroke="none" xml:space="preserve">1.0</text>
<text x="2099" font-size="10" y="1018" clip-path="url(#clipPath2)" stroke="none" xml:space="preserve">1.0</text>
<line clip-path="url(#clipPath2)" fill="none" x1="33" x2="35" y1="987" y2="987"/>
<line clip-path="url(#clipPath2)" fill="none" x1="2094" x2="2092" y1="987" y2="987"/>
<line clip-path="url(#clipPath2)" fill="none" x1="31" x2="35" y1="958" y2="958"/>
<line clip-path="url(#clipPath2)" fill="none" x1="2096" x2="2092" y1="958" y2="958"/>
<text x="9" font-size="10" y="959" clip-path="url(#clipPath2)" stroke="none" xml:space="preserve">1.2</text>
<text x="2099" font-size="10" y="959" clip-path="url(#clipPath2)" stroke="none" xml:space="preserve">1.2</text>
<line clip-path="url(#clipPath2)" fill="none" x1="33" x2="35" y1="928" y2="928"/>
<line clip-path="url(#clipPath2)" fill="none" x1="2094" x2="2092" y1="928" y2="928"/>
<line clip-path="url(#clipPath2)" fill="none" x1="31" x2="35" y1="899" y2="899"/>
<line clip-path="url(#clipPath2)" fill="none" x1="2096" x2="2092" y1="899" y2="899"/>
<text x="9" font-size="10" y="900" clip-path="url(#clipPath2)" stroke="none" xml:space="preserve">1.4</text>
<text x="2099" font-size="10" y="900" clip-path="url(#clipPath2)" stroke="none" xml:space="preserve">1.4</text>
<line clip-path="url(#clipPath2)" fill="none" x1="33" x2="35" y1="869" y2="869"/>
<line clip-path="url(#clipPath2)" fill="none" x1="2094" x2="2092" y1="869" y2="869"/>
<line clip-path="url(#clipPath2)" fill="none" x1="31" x2="35" y1="839" y2="839"/>
<line clip-path="url(#clipPath2)" fill="none" x1="2096" x2="2092" y1="839" y2="839"/>
<text x="9" font-size="10" y="840" clip-path="url(#clipPath2)" stroke="none" xml:space="preserve">1.6</text>
<text x="2099" font-size="10" y="840" clip-path="url(#clipPath2)" stroke="none" xml:space="preserve">1.6</text>
<line clip-path="url(#clipPath2)" fill="none" x1="33" x2="35" y1="810" y2="810"/>
<line clip-path="url(#clipPath2)" fill="none" x1="2094" x2="2092" y1="810" y2="810"/>
<line clip-path="url(#clipPath2)" fill="none" x1="31" x2="35" y1="780" y2="780"/>
<line clip-path="url(#clipPath2)" fill="none" x1="2096" x2="2092" y1="780" y2="780"/>
<text x="9" font-size="10" y="781" clip-path="url(#clipPath2)" stroke="none" xml:space="preserve">1.8</text>
<text x="2099" font-size="10" y="781" clip-path="url(#clipPath2)" stroke="none" xml:space="preserve">1.8</text>
<line clip-path="url(#clipPath2)" fill="none" x1="33" x2="35" y1="750" y2="750"/>
<line clip-path="url(#clipPath2)" fill="none" x1="2094" x2="2092" y1="750" y2="750"/>
<line clip-path="url(#clipPath2)" fill="none" x1="31" x2="35" y1="721" y2="721"/>
<line clip-path="url(#clipPath2)" fill="none" x1="2096" x2="2092" y1="721" y2="721"/>
<text x="9" font-size="10" y="722" clip-path="url(#clipPath2)" stroke="none" xml:space="preserve">2.0</text>
<text x="2099" font-size="10" y="722" clip-path="url(#clipPath2)" stroke="none" xml:space="preserve">2.0</text>
<line clip-path="url(#clipPath2)" fill="none" x1="33" x2="35" y1="691" y2="691"/>
<line clip-path="url(#clipPath2)" fill="none" x1="2094" x2="2092" y1="691" y2="691"/>
<line clip-path="url(#clipPath2)" fill="none" x1="31" x2="35" y1="662" y2="662"/>
<line clip-path="url(#clipPath2)" fill="none" x1="2096" x2="2092" y1="662" y2="662"/>
<text x="9" font-size="10" y="663" clip-path="url(#clipPath2)" stroke="none" xml:space="preserve">2.2</text>
<text x="2099" font-size="10" y="663" clip-path="url(#clipPath2)" stroke="none" xml:space="preserve">2.2</text>
<line clip-path="url(#clipPath2)" fill="none" x1="33" x2="35" y1="632" y2="632"/>
<line clip-path="url(#clipPath2)" fill="none" x1="2094" x2="2092" y1="632" y2="632"/>
<line clip-path="url(#clipPath2)" fill="none" x1="31" x2="35" y1="602" y2="602"/>
<line clip-path="url(#clipPath2)" fill="none" x1="2096" x2="2092" y1="602" y2="602"/>
<text x="9" font-size="10" y="603" clip-path="url(#clipPath2)" stroke="none" xml:space="preserve">2.4</text>
<text x="2099" font-size="10" y="603" clip-path="url(#clipPath2)" stroke="none" xml:space="preserve">2.4</text>
<line clip-path="url(#clipPath2)" fill="none" x1="33" x2="35" y1="573" y2="573"/>
<line clip-path="url(#clipPath2)" fill="none" x1="2094" x2="2092" y1="573" y2="573"/>
<line clip-path="url(#clipPath2)" fill="none" x1="31" x2="35" y1="543" y2="543"/>
<line clip-path="url(#clipPath2)" fill="none" x1="2096" x2="2092" y1="543" y2="543"/>
<text x="9" font-size="10" y="544" clip-path="url(#clipPath2)" stroke="none" xml:space="preserve">2.6</text>
<text x="2099" font-size="10" y="544" clip-path="url(#clipPath2)" stroke="none" xml:space="preserve">2.6</text>
<line clip-path="url(#clipPath2)" fill="none" x1="33" x2="35" y1="513" y2="513"/>
<line clip-path="url(#clipPath2)" fill="none" x1="2094" x2="2092" y1="513" y2="513"/>
<line clip-path="url(#clipPath2)" fill="none" x1="31" x2="35" y1="484" y2="484"/>
<line clip-path="url(#clipPath2)" fill="none" x1="2096" x2="2092" y1="484" y2="484"/>
<text x="9" font-size="10" y="485" clip-path="url(#clipPath2)" stroke="none" xml:space="preserve">2.8</text>
<text x="2099" font-size="10" y="485" clip-path="url(#clipPath2)" stroke="none" xml:space="preserve">2.8</text>
<line clip-path="url(#clipPath2)" fill="none" x1="33" x2="35" y1="454" y2="454"/>
<line clip-path="url(#clipPath2)" fill="none" x1="2094" x2="2092" y1="454" y2="454"/>
<line clip-path="url(#clipPath2)" fill="none" x1="31" x2="35" y1="424" y2="424"/>
<line clip-path="url(#clipPath2)" fill="none" x1="2096" x2="2092" y1="424" y2="424"/>
<text x="9" font-size="10" y="425" clip-path="url(#clipPath2)" stroke="none" xml:space="preserve">3.0</text>
<text x="2099" font-size="10" y="425" clip-path="url(#clipPath2)" stroke="none" xml:space="preserve">3.0</text>
<line clip-path="url(#clipPath2)" fill="none" x1="33" x2="35" y1="395" y2="395"/>
<line clip-path="url(#clipPath2)" fill="none" x1="2094" x2="2092" y1="395" y2="395"/>
<line clip-path="url(#clipPath2)" fill="none" x1="31" x2="35" y1="365" y2="365"/>
<line clip-path="url(#clipPath2)" fill="none" x1="2096" x2="2092" y1="365" y2="365"/>
<text x="9" font-size="10" y="366" clip-path="url(#clipPath2)" stroke="none" xml:space="preserve">3.2</text>
<text x="2099" font-size="10" y="366" clip-path="url(#clipPath2)" stroke="none" xml:space="preserve">3.2</text>
<line clip-path="url(#clipPath2)" fill="none" x1="33" x2="35" y1="336" y2="336"/>
<line clip-path="url(#clipPath2)" fill="none" x1="2094" x2="2092" y1="336" y2="336"/>
<line clip-path="url(#clipPath2)" fill="none" x1="31" x2="35" y1="306" y2="306"/>
<line clip-path="url(#clipPath2)" fill="none" x1="2096" x2="2092" y1="306" y2="306"/>
<text x="9" font-size="10" y="307" clip-path="url(#clipPath2)" stroke="none" xml:space="preserve">3.4</text>
<text x="2099" font-size="10" y="307" clip-path="url(#clipPath2)" stroke="none" xml:space="preserve">3.4</text>
<line clip-path="url(#clipPath2)" fill="none" x1="33" x2="35" y1="276" y2="276"/>
<line clip-path="url(#clipPath2)" fill="none" x1="2094" x2="2092" y1="276" y2="276"/>
<line clip-path="url(#clipPath2)" fill="none" x1="31" x2="35" y1="247" y2="247"/>
<line clip-path="url(#clipPath2)" fill="none" x1="2096" x2="2092" y1="247" y2="247"/>
<text x="9" font-size="10" y="248" clip-path="url(#clipPath2)" stroke="none" xml:space="preserve">3.6</text>
<text x="2099" font-size="10" y="248" clip-path="url(#clipPath2)" stroke="none" xml:space="preserve">3.6</text>
<line clip-path="url(#clipPath2)" fill="none" x1="33" x2="35" y1="217" y2="217"/>
<line clip-path="url(#clipPath2)" fill="none" x1="2094" x2="2092" y1="217" y2="217"/>
<line clip-path="url(#clipPath2)" fill="none" x1="31" x2="35" y1="187" y2="187"/>
<line clip-path="url(#clipPath2)" fill="none" x1="2096" x2="2092" y1="187" y2="187"/>
<text x="9" font-size="10" y="188" clip-path="url(#clipPath2)" stroke="none" xml:space="preserve">3.8</text>
<text x="2099" font-size="10" y="188" clip-path="url(#clipPath2)" stroke="none" xml:space="preserve">3.8</text>
<line clip-path="url(#clipPath2)" fill="none" x1="33" x2="35" y1="158" y2="158"/>
<line clip-path="url(#clipPath2)" fill="none" x1="2094" x2="2092" y1="158" y2="158"/>
<line clip-path="url(#clipPath2)" fill="none" x1="31" x2="35" y1="128" y2="128"/>
<line clip-path="url(#clipPath2)" fill="none" x1="2096" x2="2092" y1="128" y2="128"/>
<text x="9" font-size="10" y="129" clip-path="url(#clipPath2)" stroke="none" xml:space="preserve">4.0</text>
<text x="2099" font-size="10" y="129" clip-path="url(#clipPath2)" stroke="none" xml:space="preserve">4.0</text>
<line clip-path="url(#clipPath2)" fill="none" x1="33" x2="35" y1="98" y2="98"/>
<line clip-path="url(#clipPath2)" fill="none" x1="2094" x2="2092" y1="98" y2="98"/>
<line clip-path="url(#clipPath2)" fill="none" x1="31" x2="35" y1="69" y2="69"/>
<line clip-path="url(#clipPath2)" fill="none" x1="2096" x2="2092" y1="69" y2="69"/>
<text x="9" font-size="10" y="70" clip-path="url(#clipPath2)" stroke="none" xml:space="preserve">4.2</text>
<text x="2099" font-size="10" y="70" clip-path="url(#clipPath2)" stroke="none" xml:space="preserve">4.2</text>
<line clip-path="url(#clipPath2)" fill="none" x1="33" x2="35" y1="39" y2="39"/>
<line clip-path="url(#clipPath2)" fill="none" x1="2094" x2="2092" y1="39" y2="39"/>
<line clip-path="url(#clipPath2)" fill="none" x1="31" x2="35" y1="10" y2="10"/>
<line clip-path="url(#clipPath2)" fill="none" x1="2096" x2="2092" y1="10" y2="10"/>
<text x="9" font-size="10" y="11" clip-path="url(#clipPath2)" stroke="none" xml:space="preserve">4.4</text>
<text x="2099" font-size="10" y="11" clip-path="url(#clipPath2)" stroke="none" xml:space="preserve">4.4</text>
<line clip-path="url(#clipPath3)" fill="none" x1="48" x2="213" y1="1318" y2="1318"/>
<line clip-path="url(#clipPath3)" fill="none" x1="255" x2="420" y1="1318" y2="1318"/>
<line clip-path="url(#clipPath3)" fill="none" x1="462" x2="628" y1="1318" y2="1318"/>
<line clip-path="url(#clipPath3)" fill="none" x1="669" x2="835" y1="1318" y2="1318"/>
<line clip-path="url(#clipPath3)" fill="none" x1="877" x2="1042" y1="1318" y2="1318"/>
<line clip-path="url(#clipPath3)" fill="none" x1="1084" x2="1249" y1="1318" y2="1318"/>
<line clip-path="url(#clipPath3)" fill="none" x1="1291" x2="1456" y1="1318" y2="1318"/>
<line clip-path="url(#clipPath3)" fill="none" x1="1498" x2="1663" y1="1318" y2="1318"/>
<line clip-path="url(#clipPath3)" fill="none" x1="1705" x2="1870" y1="1318" y2="1318"/>
<line clip-path="url(#clipPath3)" fill="none" x1="1912" x2="2078" y1="1318" y2="1318"/>
<text x="48" font-size="10" y="1329" clip-path="url(#clipPath3)" stroke="none" xml:space="preserve">TuCsNet.irbServer[0].networkLayer.arp</text>
<text x="255" font-size="10" y="1329" clip-path="url(#clipPath3)" stroke="none" xml:space="preserve">TuCsNet.irbServer[1].networkLayer.arp</text>
<text x="462" font-size="10" y="1329" clip-path="url(#clipPath3)" stroke="none" xml:space="preserve">TuCsNet.irbServer[2].networkLayer.arp</text>
<text x="669" font-size="10" y="1329" clip-path="url(#clipPath3)" stroke="none" xml:space="preserve">TuCsNet.irbServer[3].networkLayer.arp</text>
<text x="877" font-size="10" y="1329" clip-path="url(#clipPath3)" stroke="none" xml:space="preserve">TuCsNet.irbServer[4].networkLayer.arp</text>
<text x="1084" font-size="10" y="1329" clip-path="url(#clipPath3)" stroke="none" xml:space="preserve">TuCsNet.irbServer[5].networkLayer.arp</text>
<text x="1291" font-size="10" y="1329" clip-path="url(#clipPath3)" stroke="none" xml:space="preserve">TuCsNet.irbServer[6].networkLayer.arp</text>
<text x="1498" font-size="10" y="1329" clip-path="url(#clipPath3)" stroke="none" xml:space="preserve">TuCsNet.irbServer[7].networkLayer.arp</text>
<text x="1705" font-size="10" y="1329" clip-path="url(#clipPath3)" stroke="none" xml:space="preserve">TuCsNet.irbServer[8].networkLayer.arp</text>
<text x="1912" font-size="10" y="1329" clip-path="url(#clipPath3)" stroke="none" xml:space="preserve">TuCsNet.irbServer[9].networkLayer.arp</text>
</g>
</g>
</svg>
