<?xml version="1.0" encoding="UTF-8"?><svg xmlns="http://www.w3.org/2000/svg" xmlns:xlink="http://www.w3.org/1999/xlink" stroke-dasharray="none" shape-rendering="auto" font-family="'Dialog'" width="2831" text-rendering="auto" fill-opacity="1" contentScriptType="text/ecmascript" color-interpolation="auto" color-rendering="auto" preserveAspectRatio="xMidYMid meet" font-size="12" fill="black" stroke="black" image-rendering="auto" stroke-miterlimit="10" zoomAndPan="magnify" version="1.0" stroke-linecap="square" stroke-linejoin="miter" contentStyleType="text/css" font-style="normal" height="1180" stroke-width="1" stroke-dashoffset="0" font-weight="normal" stroke-opacity="1">
<!--Generated by the Batik Graphics2D SVG Generator-->
<defs id="genericDefs"/>
<g>
<defs id="defs1">
<clipPath clipPathUnits="userSpaceOnUse" id="clipPath1">
<path d="M104 9 L2727 9 L2727 1092 L104 1092 L104 9 Z"/>
</clipPath>
<clipPath clipPathUnits="userSpaceOnUse" id="clipPath2">
<path d="M-1 -1 L2832 -1 L2832 1181 L-1 1181 L-1 -1 Z"/>
</clipPath>
<clipPath clipPathUnits="userSpaceOnUse" id="clipPath3">
<path d="M1093 14 L1739 14 L1739 45 L1093 45 L1093 14 Z"/>
</clipPath>
<clipPath clipPathUnits="userSpaceOnUse" id="clipPath4">
<path d="M104 1090 L2727 1090 L2727 1181 L104 1181 L104 1090 Z"/>
</clipPath>
</defs>
<g fill="white" text-rendering="geometricPrecision" font-family="'Segoe UI'" stroke-linejoin="round" stroke="white" stroke-width="0" stroke-miterlimit="0">
<rect x="105" y="10" clip-path="url(#clipPath1)" width="2621" height="1081" stroke="none"/>
</g>
<g stroke-linecap="butt" fill="rgb(204,204,204)" text-rendering="geometricPrecision" font-family="'Segoe UI'" stroke-dasharray="3,3" stroke="rgb(204,204,204)">
<line clip-path="url(#clipPath1)" fill="none" x1="105" x2="2726" y1="1091" y2="1091"/>
<line clip-path="url(#clipPath1)" fill="none" x1="105" x2="2726" y1="981" y2="981"/>
<line clip-path="url(#clipPath1)" fill="none" x1="105" x2="2726" y1="872" y2="872"/>
<line clip-path="url(#clipPath1)" fill="none" x1="105" x2="2726" y1="763" y2="763"/>
<line clip-path="url(#clipPath1)" fill="none" x1="105" x2="2726" y1="654" y2="654"/>
<line clip-path="url(#clipPath1)" fill="none" x1="105" x2="2726" y1="545" y2="545"/>
<line clip-path="url(#clipPath1)" fill="none" x1="105" x2="2726" y1="436" y2="436"/>
<line clip-path="url(#clipPath1)" fill="none" x1="105" x2="2726" y1="327" y2="327"/>
<line clip-path="url(#clipPath1)" fill="none" x1="105" x2="2726" y1="218" y2="218"/>
<line clip-path="url(#clipPath1)" fill="none" x1="105" x2="2726" y1="109" y2="109"/>
<rect x="2688" y="454" clip-path="url(#clipPath1)" fill="rgb(255,165,0)" width="18" height="636" stroke="none"/>
<rect x="2688" y="454" clip-path="url(#clipPath1)" fill="none" width="18" stroke-dasharray="none" height="636"/>
<rect x="2659" y="567" clip-path="url(#clipPath1)" fill="rgb(0,100,0)" width="18" stroke-dasharray="none" height="523" stroke="none"/>
<rect x="2659" y="567" clip-path="url(#clipPath1)" fill="none" width="18" stroke-dasharray="none" height="523"/>
<rect x="2631" y="438" clip-path="url(#clipPath1)" fill="rgb(238,0,0)" width="18" stroke-dasharray="none" height="652" stroke="none"/>
<rect x="2631" y="438" clip-path="url(#clipPath1)" fill="none" width="18" stroke-dasharray="none" height="652"/>
<rect x="2602" y="353" clip-path="url(#clipPath1)" fill="rgb(0,0,139)" width="18" stroke-dasharray="none" height="737" stroke="none"/>
<rect x="2602" y="353" clip-path="url(#clipPath1)" fill="none" width="18" stroke-dasharray="none" height="737"/>
<rect x="2557" y="229" clip-path="url(#clipPath1)" fill="rgb(255,165,0)" width="18" stroke-dasharray="none" height="861" stroke="none"/>
<rect x="2557" y="229" clip-path="url(#clipPath1)" fill="none" width="18" stroke-dasharray="none" height="861"/>
<rect x="2529" y="387" clip-path="url(#clipPath1)" fill="rgb(0,100,0)" width="18" stroke-dasharray="none" height="703" stroke="none"/>
<rect x="2529" y="387" clip-path="url(#clipPath1)" fill="none" width="18" stroke-dasharray="none" height="703"/>
<rect x="2500" y="223" clip-path="url(#clipPath1)" fill="rgb(238,0,0)" width="18" stroke-dasharray="none" height="867" stroke="none"/>
<rect x="2500" y="223" clip-path="url(#clipPath1)" fill="none" width="18" stroke-dasharray="none" height="867"/>
<rect x="2472" y="183" clip-path="url(#clipPath1)" fill="rgb(0,0,139)" width="18" stroke-dasharray="none" height="907" stroke="none"/>
<rect x="2472" y="183" clip-path="url(#clipPath1)" fill="none" width="18" stroke-dasharray="none" height="907"/>
<rect x="2427" y="563" clip-path="url(#clipPath1)" fill="rgb(255,165,0)" width="18" stroke-dasharray="none" height="527" stroke="none"/>
<rect x="2427" y="563" clip-path="url(#clipPath1)" fill="none" width="18" stroke-dasharray="none" height="527"/>
<rect x="2398" y="695" clip-path="url(#clipPath1)" fill="rgb(0,100,0)" width="18" stroke-dasharray="none" height="395" stroke="none"/>
<rect x="2398" y="695" clip-path="url(#clipPath1)" fill="none" width="18" stroke-dasharray="none" height="395"/>
<rect x="2370" y="594" clip-path="url(#clipPath1)" fill="rgb(238,0,0)" width="18" stroke-dasharray="none" height="496" stroke="none"/>
<rect x="2370" y="594" clip-path="url(#clipPath1)" fill="none" width="18" stroke-dasharray="none" height="496"/>
<rect x="2341" y="437" clip-path="url(#clipPath1)" fill="rgb(0,0,139)" width="18" stroke-dasharray="none" height="653" stroke="none"/>
<rect x="2341" y="437" clip-path="url(#clipPath1)" fill="none" width="18" stroke-dasharray="none" height="653"/>
<rect x="2296" y="329" clip-path="url(#clipPath1)" fill="rgb(255,165,0)" width="18" stroke-dasharray="none" height="761" stroke="none"/>
<rect x="2296" y="329" clip-path="url(#clipPath1)" fill="none" width="18" stroke-dasharray="none" height="761"/>
<rect x="2268" y="528" clip-path="url(#clipPath1)" fill="rgb(0,100,0)" width="18" stroke-dasharray="none" height="562" stroke="none"/>
<rect x="2268" y="528" clip-path="url(#clipPath1)" fill="none" width="18" stroke-dasharray="none" height="562"/>
<rect x="2239" y="433" clip-path="url(#clipPath1)" fill="rgb(238,0,0)" width="18" stroke-dasharray="none" height="657" stroke="none"/>
<rect x="2239" y="433" clip-path="url(#clipPath1)" fill="none" width="18" stroke-dasharray="none" height="657"/>
<rect x="2211" y="313" clip-path="url(#clipPath1)" fill="rgb(0,0,139)" width="18" stroke-dasharray="none" height="777" stroke="none"/>
<rect x="2211" y="313" clip-path="url(#clipPath1)" fill="none" width="18" stroke-dasharray="none" height="777"/>
<rect x="2166" y="544" clip-path="url(#clipPath1)" fill="rgb(255,165,0)" width="18" stroke-dasharray="none" height="546" stroke="none"/>
<rect x="2166" y="544" clip-path="url(#clipPath1)" fill="none" width="18" stroke-dasharray="none" height="546"/>
<rect x="2137" y="658" clip-path="url(#clipPath1)" fill="rgb(0,100,0)" width="18" stroke-dasharray="none" height="432" stroke="none"/>
<rect x="2137" y="658" clip-path="url(#clipPath1)" fill="none" width="18" stroke-dasharray="none" height="432"/>
<rect x="2109" y="735" clip-path="url(#clipPath1)" fill="rgb(238,0,0)" width="18" stroke-dasharray="none" height="355" stroke="none"/>
<rect x="2109" y="735" clip-path="url(#clipPath1)" fill="none" width="18" stroke-dasharray="none" height="355"/>
<rect x="2080" y="454" clip-path="url(#clipPath1)" fill="rgb(0,0,139)" width="18" stroke-dasharray="none" height="636" stroke="none"/>
<rect x="2080" y="454" clip-path="url(#clipPath1)" fill="none" width="18" stroke-dasharray="none" height="636"/>
<rect x="2035" y="379" clip-path="url(#clipPath1)" fill="rgb(255,165,0)" width="18" stroke-dasharray="none" height="711" stroke="none"/>
<rect x="2035" y="379" clip-path="url(#clipPath1)" fill="none" width="18" stroke-dasharray="none" height="711"/>
<rect x="2007" y="586" clip-path="url(#clipPath1)" fill="rgb(0,100,0)" width="18" stroke-dasharray="none" height="504" stroke="none"/>
<rect x="2007" y="586" clip-path="url(#clipPath1)" fill="none" width="18" stroke-dasharray="none" height="504"/>
<rect x="1978" y="580" clip-path="url(#clipPath1)" fill="rgb(238,0,0)" width="18" stroke-dasharray="none" height="510" stroke="none"/>
<rect x="1978" y="580" clip-path="url(#clipPath1)" fill="none" width="18" stroke-dasharray="none" height="510"/>
<rect x="1950" y="386" clip-path="url(#clipPath1)" fill="rgb(0,0,139)" width="18" stroke-dasharray="none" height="704" stroke="none"/>
<rect x="1950" y="386" clip-path="url(#clipPath1)" fill="none" width="18" stroke-dasharray="none" height="704"/>
<rect x="1905" y="447" clip-path="url(#clipPath1)" fill="rgb(255,165,0)" width="18" stroke-dasharray="none" height="643" stroke="none"/>
<rect x="1905" y="447" clip-path="url(#clipPath1)" fill="none" width="18" stroke-dasharray="none" height="643"/>
<rect x="1876" y="408" clip-path="url(#clipPath1)" fill="rgb(0,100,0)" width="18" stroke-dasharray="none" height="682" stroke="none"/>
<rect x="1876" y="408" clip-path="url(#clipPath1)" fill="none" width="18" stroke-dasharray="none" height="682"/>
<rect x="1848" y="390" clip-path="url(#clipPath1)" fill="rgb(238,0,0)" width="18" stroke-dasharray="none" height="700" stroke="none"/>
<rect x="1848" y="390" clip-path="url(#clipPath1)" fill="none" width="18" stroke-dasharray="none" height="700"/>
<rect x="1819" y="588" clip-path="url(#clipPath1)" fill="rgb(0,0,139)" width="18" stroke-dasharray="none" height="502" stroke="none"/>
<rect x="1819" y="588" clip-path="url(#clipPath1)" fill="none" width="18" stroke-dasharray="none" height="502"/>
<rect x="1774" y="161" clip-path="url(#clipPath1)" fill="rgb(255,165,0)" width="18" stroke-dasharray="none" height="929" stroke="none"/>
<rect x="1774" y="161" clip-path="url(#clipPath1)" fill="none" width="18" stroke-dasharray="none" height="929"/>
<rect x="1746" y="180" clip-path="url(#clipPath1)" fill="rgb(0,100,0)" width="18" stroke-dasharray="none" height="910" stroke="none"/>
<rect x="1746" y="180" clip-path="url(#clipPath1)" fill="none" width="18" stroke-dasharray="none" height="910"/>
<rect x="1717" y="235" clip-path="url(#clipPath1)" fill="rgb(238,0,0)" width="18" stroke-dasharray="none" height="855" stroke="none"/>
<rect x="1717" y="235" clip-path="url(#clipPath1)" fill="none" width="18" stroke-dasharray="none" height="855"/>
<rect x="1689" y="333" clip-path="url(#clipPath1)" fill="rgb(0,0,139)" width="18" stroke-dasharray="none" height="757" stroke="none"/>
<rect x="1689" y="333" clip-path="url(#clipPath1)" fill="none" width="18" stroke-dasharray="none" height="757"/>
<rect x="1644" y="561" clip-path="url(#clipPath1)" fill="rgb(255,165,0)" width="18" stroke-dasharray="none" height="529" stroke="none"/>
<rect x="1644" y="561" clip-path="url(#clipPath1)" fill="none" width="18" stroke-dasharray="none" height="529"/>
<rect x="1615" y="339" clip-path="url(#clipPath1)" fill="rgb(0,100,0)" width="18" stroke-dasharray="none" height="751" stroke="none"/>
<rect x="1615" y="339" clip-path="url(#clipPath1)" fill="none" width="18" stroke-dasharray="none" height="751"/>
<rect x="1587" y="686" clip-path="url(#clipPath1)" fill="rgb(238,0,0)" width="18" stroke-dasharray="none" height="404" stroke="none"/>
<rect x="1587" y="686" clip-path="url(#clipPath1)" fill="none" width="18" stroke-dasharray="none" height="404"/>
<rect x="1559" y="603" clip-path="url(#clipPath1)" fill="rgb(0,0,139)" width="18" stroke-dasharray="none" height="487" stroke="none"/>
<rect x="1559" y="603" clip-path="url(#clipPath1)" fill="none" width="18" stroke-dasharray="none" height="487"/>
<rect x="1513" y="286" clip-path="url(#clipPath1)" fill="rgb(255,165,0)" width="18" stroke-dasharray="none" height="804" stroke="none"/>
<rect x="1513" y="286" clip-path="url(#clipPath1)" fill="none" width="18" stroke-dasharray="none" height="804"/>
<rect x="1485" y="108" clip-path="url(#clipPath1)" fill="rgb(0,100,0)" width="18" stroke-dasharray="none" height="982" stroke="none"/>
<rect x="1485" y="108" clip-path="url(#clipPath1)" fill="none" width="18" stroke-dasharray="none" height="982"/>
<rect x="1457" y="407" clip-path="url(#clipPath1)" fill="rgb(238,0,0)" width="18" stroke-dasharray="none" height="683" stroke="none"/>
<rect x="1457" y="407" clip-path="url(#clipPath1)" fill="none" width="18" stroke-dasharray="none" height="683"/>
<rect x="1428" y="325" clip-path="url(#clipPath1)" fill="rgb(0,0,139)" width="18" stroke-dasharray="none" height="765" stroke="none"/>
<rect x="1428" y="325" clip-path="url(#clipPath1)" fill="none" width="18" stroke-dasharray="none" height="765"/>
<rect x="1383" y="623" clip-path="url(#clipPath1)" fill="rgb(255,165,0)" width="18" stroke-dasharray="none" height="467" stroke="none"/>
<rect x="1383" y="623" clip-path="url(#clipPath1)" fill="none" width="18" stroke-dasharray="none" height="467"/>
<rect x="1355" y="405" clip-path="url(#clipPath1)" fill="rgb(0,100,0)" width="18" stroke-dasharray="none" height="685" stroke="none"/>
<rect x="1355" y="405" clip-path="url(#clipPath1)" fill="none" width="18" stroke-dasharray="none" height="685"/>
<rect x="1326" y="720" clip-path="url(#clipPath1)" fill="rgb(238,0,0)" width="18" stroke-dasharray="none" height="370" stroke="none"/>
<rect x="1326" y="720" clip-path="url(#clipPath1)" fill="none" width="18" stroke-dasharray="none" height="370"/>
<rect x="1298" y="602" clip-path="url(#clipPath1)" fill="rgb(0,0,139)" width="18" stroke-dasharray="none" height="488" stroke="none"/>
<rect x="1298" y="602" clip-path="url(#clipPath1)" fill="none" width="18" stroke-dasharray="none" height="488"/>
<rect x="1253" y="398" clip-path="url(#clipPath1)" fill="rgb(255,165,0)" width="18" stroke-dasharray="none" height="692" stroke="none"/>
<rect x="1253" y="398" clip-path="url(#clipPath1)" fill="none" width="18" stroke-dasharray="none" height="692"/>
<rect x="1224" y="235" clip-path="url(#clipPath1)" fill="rgb(0,100,0)" width="18" stroke-dasharray="none" height="855" stroke="none"/>
<rect x="1224" y="235" clip-path="url(#clipPath1)" fill="none" width="18" stroke-dasharray="none" height="855"/>
<rect x="1196" y="528" clip-path="url(#clipPath1)" fill="rgb(238,0,0)" width="18" stroke-dasharray="none" height="562" stroke="none"/>
<rect x="1196" y="528" clip-path="url(#clipPath1)" fill="none" width="18" stroke-dasharray="none" height="562"/>
<rect x="1167" y="495" clip-path="url(#clipPath1)" fill="rgb(0,0,139)" width="18" stroke-dasharray="none" height="595" stroke="none"/>
<rect x="1167" y="495" clip-path="url(#clipPath1)" fill="none" width="18" stroke-dasharray="none" height="595"/>
<rect x="1122" y="839" clip-path="url(#clipPath1)" fill="rgb(255,165,0)" width="18" stroke-dasharray="none" height="251" stroke="none"/>
<rect x="1122" y="839" clip-path="url(#clipPath1)" fill="none" width="18" stroke-dasharray="none" height="251"/>
<rect x="1094" y="752" clip-path="url(#clipPath1)" fill="rgb(0,100,0)" width="18" stroke-dasharray="none" height="338" stroke="none"/>
<rect x="1094" y="752" clip-path="url(#clipPath1)" fill="none" width="18" stroke-dasharray="none" height="338"/>
<rect x="1065" y="706" clip-path="url(#clipPath1)" fill="rgb(238,0,0)" width="18" stroke-dasharray="none" height="384" stroke="none"/>
<rect x="1065" y="706" clip-path="url(#clipPath1)" fill="none" width="18" stroke-dasharray="none" height="384"/>
<rect x="1037" y="661" clip-path="url(#clipPath1)" fill="rgb(0,0,139)" width="18" stroke-dasharray="none" height="429" stroke="none"/>
<rect x="1037" y="661" clip-path="url(#clipPath1)" fill="none" width="18" stroke-dasharray="none" height="429"/>
<rect x="992" y="656" clip-path="url(#clipPath1)" fill="rgb(255,165,0)" width="18" stroke-dasharray="none" height="434" stroke="none"/>
<rect x="992" y="656" clip-path="url(#clipPath1)" fill="none" width="18" stroke-dasharray="none" height="434"/>
<rect x="963" y="550" clip-path="url(#clipPath1)" fill="rgb(0,100,0)" width="18" stroke-dasharray="none" height="540" stroke="none"/>
<rect x="963" y="550" clip-path="url(#clipPath1)" fill="none" width="18" stroke-dasharray="none" height="540"/>
<rect x="935" y="540" clip-path="url(#clipPath1)" fill="rgb(238,0,0)" width="18" stroke-dasharray="none" height="550" stroke="none"/>
<rect x="935" y="540" clip-path="url(#clipPath1)" fill="none" width="18" stroke-dasharray="none" height="550"/>
<rect x="906" y="505" clip-path="url(#clipPath1)" fill="rgb(0,0,139)" width="18" stroke-dasharray="none" height="585" stroke="none"/>
<rect x="906" y="505" clip-path="url(#clipPath1)" fill="none" width="18" stroke-dasharray="none" height="585"/>
<rect x="861" y="694" clip-path="url(#clipPath1)" fill="rgb(255,165,0)" width="18" stroke-dasharray="none" height="396" stroke="none"/>
<rect x="861" y="694" clip-path="url(#clipPath1)" fill="none" width="18" stroke-dasharray="none" height="396"/>
<rect x="833" y="529" clip-path="url(#clipPath1)" fill="rgb(0,100,0)" width="18" stroke-dasharray="none" height="561" stroke="none"/>
<rect x="833" y="529" clip-path="url(#clipPath1)" fill="none" width="18" stroke-dasharray="none" height="561"/>
<rect x="804" y="589" clip-path="url(#clipPath1)" fill="rgb(238,0,0)" width="18" stroke-dasharray="none" height="501" stroke="none"/>
<rect x="804" y="589" clip-path="url(#clipPath1)" fill="none" width="18" stroke-dasharray="none" height="501"/>
<rect x="776" y="627" clip-path="url(#clipPath1)" fill="rgb(0,0,139)" width="18" stroke-dasharray="none" height="463" stroke="none"/>
<rect x="776" y="627" clip-path="url(#clipPath1)" fill="none" width="18" stroke-dasharray="none" height="463"/>
<rect x="731" y="494" clip-path="url(#clipPath1)" fill="rgb(255,165,0)" width="18" stroke-dasharray="none" height="596" stroke="none"/>
<rect x="731" y="494" clip-path="url(#clipPath1)" fill="none" width="18" stroke-dasharray="none" height="596"/>
<rect x="702" y="353" clip-path="url(#clipPath1)" fill="rgb(0,100,0)" width="18" stroke-dasharray="none" height="737" stroke="none"/>
<rect x="702" y="353" clip-path="url(#clipPath1)" fill="none" width="18" stroke-dasharray="none" height="737"/>
<rect x="674" y="342" clip-path="url(#clipPath1)" fill="rgb(238,0,0)" width="18" stroke-dasharray="none" height="748" stroke="none"/>
<rect x="674" y="342" clip-path="url(#clipPath1)" fill="none" width="18" stroke-dasharray="none" height="748"/>
<rect x="645" y="567" clip-path="url(#clipPath1)" fill="rgb(0,0,139)" width="18" stroke-dasharray="none" height="523" stroke="none"/>
<rect x="645" y="567" clip-path="url(#clipPath1)" fill="none" width="18" stroke-dasharray="none" height="523"/>
<rect x="600" y="730" clip-path="url(#clipPath1)" fill="rgb(255,165,0)" width="18" stroke-dasharray="none" height="360" stroke="none"/>
<rect x="600" y="730" clip-path="url(#clipPath1)" fill="none" width="18" stroke-dasharray="none" height="360"/>
<rect x="572" y="624" clip-path="url(#clipPath1)" fill="rgb(0,100,0)" width="18" stroke-dasharray="none" height="466" stroke="none"/>
<rect x="572" y="624" clip-path="url(#clipPath1)" fill="none" width="18" stroke-dasharray="none" height="466"/>
<rect x="543" y="702" clip-path="url(#clipPath1)" fill="rgb(238,0,0)" width="18" stroke-dasharray="none" height="388" stroke="none"/>
<rect x="543" y="702" clip-path="url(#clipPath1)" fill="none" width="18" stroke-dasharray="none" height="388"/>
<rect x="515" y="643" clip-path="url(#clipPath1)" fill="rgb(0,0,139)" width="18" stroke-dasharray="none" height="447" stroke="none"/>
<rect x="515" y="643" clip-path="url(#clipPath1)" fill="none" width="18" stroke-dasharray="none" height="447"/>
<rect x="470" y="574" clip-path="url(#clipPath1)" fill="rgb(255,165,0)" width="18" stroke-dasharray="none" height="516" stroke="none"/>
<rect x="470" y="574" clip-path="url(#clipPath1)" fill="none" width="18" stroke-dasharray="none" height="516"/>
<rect x="441" y="545" clip-path="url(#clipPath1)" fill="rgb(0,100,0)" width="18" stroke-dasharray="none" height="545" stroke="none"/>
<rect x="441" y="545" clip-path="url(#clipPath1)" fill="none" width="18" stroke-dasharray="none" height="545"/>
<rect x="413" y="563" clip-path="url(#clipPath1)" fill="rgb(238,0,0)" width="18" stroke-dasharray="none" height="527" stroke="none"/>
<rect x="413" y="563" clip-path="url(#clipPath1)" fill="none" width="18" stroke-dasharray="none" height="527"/>
<rect x="384" y="558" clip-path="url(#clipPath1)" fill="rgb(0,0,139)" width="18" stroke-dasharray="none" height="532" stroke="none"/>
<rect x="384" y="558" clip-path="url(#clipPath1)" fill="none" width="18" stroke-dasharray="none" height="532"/>
<rect x="339" y="625" clip-path="url(#clipPath1)" fill="rgb(255,165,0)" width="18" stroke-dasharray="none" height="465" stroke="none"/>
<rect x="339" y="625" clip-path="url(#clipPath1)" fill="none" width="18" stroke-dasharray="none" height="465"/>
<rect x="311" y="550" clip-path="url(#clipPath1)" fill="rgb(0,100,0)" width="18" stroke-dasharray="none" height="540" stroke="none"/>
<rect x="311" y="550" clip-path="url(#clipPath1)" fill="none" width="18" stroke-dasharray="none" height="540"/>
<rect x="282" y="462" clip-path="url(#clipPath1)" fill="rgb(238,0,0)" width="18" stroke-dasharray="none" height="628" stroke="none"/>
<rect x="282" y="462" clip-path="url(#clipPath1)" fill="none" width="18" stroke-dasharray="none" height="628"/>
<rect x="254" y="431" clip-path="url(#clipPath1)" fill="rgb(0,0,139)" width="18" stroke-dasharray="none" height="659" stroke="none"/>
<rect x="254" y="431" clip-path="url(#clipPath1)" fill="none" width="18" stroke-dasharray="none" height="659"/>
<rect x="209" y="377" clip-path="url(#clipPath1)" fill="rgb(255,165,0)" width="18" stroke-dasharray="none" height="713" stroke="none"/>
<rect x="209" y="377" clip-path="url(#clipPath1)" fill="none" width="18" stroke-dasharray="none" height="713"/>
<rect x="180" y="382" clip-path="url(#clipPath1)" fill="rgb(0,100,0)" width="18" stroke-dasharray="none" height="708" stroke="none"/>
<rect x="180" y="382" clip-path="url(#clipPath1)" fill="none" width="18" stroke-dasharray="none" height="708"/>
<rect x="152" y="239" clip-path="url(#clipPath1)" fill="rgb(238,0,0)" width="18" stroke-dasharray="none" height="851" stroke="none"/>
<rect x="152" y="239" clip-path="url(#clipPath1)" fill="none" width="18" stroke-dasharray="none" height="851"/>
<rect x="123" y="347" clip-path="url(#clipPath1)" fill="rgb(0,0,139)" width="18" stroke-dasharray="none" height="743" stroke="none"/>
<rect x="123" y="347" clip-path="url(#clipPath1)" fill="none" width="18" stroke-dasharray="none" height="743"/>
<rect x="105" y="10" clip-path="url(#clipPath2)" fill="none" width="2621" stroke-dasharray="none" height="1081" stroke="black"/>
<line clip-path="url(#clipPath2)" fill="none" x1="106" x2="2725" y1="1091" y2="1091" stroke-dasharray="none"/>
<rect x="1094" y="15" clip-path="url(#clipPath3)" fill="white" width="643" stroke-dasharray="none" height="28" stroke="none"/>
<rect x="1104" y="26" clip-path="url(#clipPath3)" fill="rgb(0,0,139)" width="7" stroke-dasharray="none" height="7" stroke="none"/>
</g>
<g text-rendering="geometricPrecision" font-size="10" font-family="'Arial'" stroke-linecap="butt">
<text xml:space="preserve" x="1116" y="30" clip-path="url(#clipPath3)" stroke="none">KeinAngriff</text>
<rect x="1208" y="26" clip-path="url(#clipPath3)" fill="rgb(238,0,0)" width="7" height="7" stroke="none"/>
<text xml:space="preserve" x="1220" y="30" clip-path="url(#clipPath3)" stroke="none">KeinAngriffEmptyAttack</text>
<rect x="1400" y="26" clip-path="url(#clipPath3)" fill="rgb(0,100,0)" width="7" height="7" stroke="none"/>
<text xml:space="preserve" x="1412" y="30" clip-path="url(#clipPath3)" stroke="none">KeinAngriffLateAttack</text>
<rect x="1579" y="26" clip-path="url(#clipPath3)" fill="rgb(255,165,0)" width="7" height="7" stroke="none"/>
<text xml:space="preserve" x="1591" y="30" clip-path="url(#clipPath3)" stroke="none">KeinAngriffNoAttack</text>
<line clip-path="url(#clipPath2)" fill="none" x1="103" x2="103" y1="10" y2="1091"/>
<line clip-path="url(#clipPath2)" fill="none" x1="2728" x2="2728" y1="10" y2="1091"/>
<line clip-path="url(#clipPath2)" fill="none" x1="99" x2="103" y1="1091" y2="1091"/>
<line clip-path="url(#clipPath2)" fill="none" x1="2732" x2="2728" y1="1091" y2="1091"/>
<text xml:space="preserve" x="91" y="1092" clip-path="url(#clipPath2)" stroke="none">0</text>
<text xml:space="preserve" x="2735" y="1092" clip-path="url(#clipPath2)" stroke="none">0</text>
<line clip-path="url(#clipPath2)" fill="none" x1="101" x2="103" y1="1069" y2="1069"/>
<line clip-path="url(#clipPath2)" fill="none" x1="2730" x2="2728" y1="1069" y2="1069"/>
<line clip-path="url(#clipPath2)" fill="none" x1="101" x2="103" y1="1047" y2="1047"/>
<line clip-path="url(#clipPath2)" fill="none" x1="2730" x2="2728" y1="1047" y2="1047"/>
<line clip-path="url(#clipPath2)" fill="none" x1="101" x2="103" y1="1025" y2="1025"/>
<line clip-path="url(#clipPath2)" fill="none" x1="2730" x2="2728" y1="1025" y2="1025"/>
<line clip-path="url(#clipPath2)" fill="none" x1="101" x2="103" y1="1003" y2="1003"/>
<line clip-path="url(#clipPath2)" fill="none" x1="2730" x2="2728" y1="1003" y2="1003"/>
<line clip-path="url(#clipPath2)" fill="none" x1="99" x2="103" y1="981" y2="981"/>
<line clip-path="url(#clipPath2)" fill="none" x1="2732" x2="2728" y1="981" y2="981"/>
<text xml:space="preserve" x="35" y="982" clip-path="url(#clipPath2)" stroke="none">500000000</text>
<text xml:space="preserve" x="2735" y="982" clip-path="url(#clipPath2)" stroke="none">500000000</text>
<line clip-path="url(#clipPath2)" fill="none" x1="101" x2="103" y1="960" y2="960"/>
<line clip-path="url(#clipPath2)" fill="none" x1="2730" x2="2728" y1="960" y2="960"/>
<line clip-path="url(#clipPath2)" fill="none" x1="101" x2="103" y1="938" y2="938"/>
<line clip-path="url(#clipPath2)" fill="none" x1="2730" x2="2728" y1="938" y2="938"/>
<line clip-path="url(#clipPath2)" fill="none" x1="101" x2="103" y1="916" y2="916"/>
<line clip-path="url(#clipPath2)" fill="none" x1="2730" x2="2728" y1="916" y2="916"/>
<line clip-path="url(#clipPath2)" fill="none" x1="101" x2="103" y1="894" y2="894"/>
<line clip-path="url(#clipPath2)" fill="none" x1="2730" x2="2728" y1="894" y2="894"/>
<line clip-path="url(#clipPath2)" fill="none" x1="99" x2="103" y1="872" y2="872"/>
<line clip-path="url(#clipPath2)" fill="none" x1="2732" x2="2728" y1="872" y2="872"/>
<text xml:space="preserve" x="28" y="873" clip-path="url(#clipPath2)" stroke="none">1000000000</text>
<text xml:space="preserve" x="2735" y="873" clip-path="url(#clipPath2)" stroke="none">1000000000</text>
<line clip-path="url(#clipPath2)" fill="none" x1="101" x2="103" y1="850" y2="850"/>
<line clip-path="url(#clipPath2)" fill="none" x1="2730" x2="2728" y1="850" y2="850"/>
<line clip-path="url(#clipPath2)" fill="none" x1="101" x2="103" y1="829" y2="829"/>
<line clip-path="url(#clipPath2)" fill="none" x1="2730" x2="2728" y1="829" y2="829"/>
<line clip-path="url(#clipPath2)" fill="none" x1="101" x2="103" y1="807" y2="807"/>
<line clip-path="url(#clipPath2)" fill="none" x1="2730" x2="2728" y1="807" y2="807"/>
<line clip-path="url(#clipPath2)" fill="none" x1="101" x2="103" y1="785" y2="785"/>
<line clip-path="url(#clipPath2)" fill="none" x1="2730" x2="2728" y1="785" y2="785"/>
<line clip-path="url(#clipPath2)" fill="none" x1="99" x2="103" y1="763" y2="763"/>
<line clip-path="url(#clipPath2)" fill="none" x1="2732" x2="2728" y1="763" y2="763"/>
<text xml:space="preserve" x="28" y="764" clip-path="url(#clipPath2)" stroke="none">1500000000</text>
<text xml:space="preserve" x="2735" y="764" clip-path="url(#clipPath2)" stroke="none">1500000000</text>
<line clip-path="url(#clipPath2)" fill="none" x1="101" x2="103" y1="741" y2="741"/>
<line clip-path="url(#clipPath2)" fill="none" x1="2730" x2="2728" y1="741" y2="741"/>
<line clip-path="url(#clipPath2)" fill="none" x1="101" x2="103" y1="720" y2="720"/>
<line clip-path="url(#clipPath2)" fill="none" x1="2730" x2="2728" y1="720" y2="720"/>
<line clip-path="url(#clipPath2)" fill="none" x1="101" x2="103" y1="698" y2="698"/>
<line clip-path="url(#clipPath2)" fill="none" x1="2730" x2="2728" y1="698" y2="698"/>
<line clip-path="url(#clipPath2)" fill="none" x1="101" x2="103" y1="676" y2="676"/>
<line clip-path="url(#clipPath2)" fill="none" x1="2730" x2="2728" y1="676" y2="676"/>
<line clip-path="url(#clipPath2)" fill="none" x1="99" x2="103" y1="654" y2="654"/>
<line clip-path="url(#clipPath2)" fill="none" x1="2732" x2="2728" y1="654" y2="654"/>
<text xml:space="preserve" x="28" y="655" clip-path="url(#clipPath2)" stroke="none">2000000000</text>
<text xml:space="preserve" x="2735" y="655" clip-path="url(#clipPath2)" stroke="none">2000000000</text>
<line clip-path="url(#clipPath2)" fill="none" x1="101" x2="103" y1="632" y2="632"/>
<line clip-path="url(#clipPath2)" fill="none" x1="2730" x2="2728" y1="632" y2="632"/>
<line clip-path="url(#clipPath2)" fill="none" x1="101" x2="103" y1="610" y2="610"/>
<line clip-path="url(#clipPath2)" fill="none" x1="2730" x2="2728" y1="610" y2="610"/>
<line clip-path="url(#clipPath2)" fill="none" x1="101" x2="103" y1="589" y2="589"/>
<line clip-path="url(#clipPath2)" fill="none" x1="2730" x2="2728" y1="589" y2="589"/>
<line clip-path="url(#clipPath2)" fill="none" x1="101" x2="103" y1="567" y2="567"/>
<line clip-path="url(#clipPath2)" fill="none" x1="2730" x2="2728" y1="567" y2="567"/>
<line clip-path="url(#clipPath2)" fill="none" x1="99" x2="103" y1="545" y2="545"/>
<line clip-path="url(#clipPath2)" fill="none" x1="2732" x2="2728" y1="545" y2="545"/>
<text xml:space="preserve" x="28" y="546" clip-path="url(#clipPath2)" stroke="none">2500000000</text>
<text xml:space="preserve" x="2735" y="546" clip-path="url(#clipPath2)" stroke="none">2500000000</text>
<line clip-path="url(#clipPath2)" fill="none" x1="101" x2="103" y1="523" y2="523"/>
<line clip-path="url(#clipPath2)" fill="none" x1="2730" x2="2728" y1="523" y2="523"/>
<line clip-path="url(#clipPath2)" fill="none" x1="101" x2="103" y1="501" y2="501"/>
<line clip-path="url(#clipPath2)" fill="none" x1="2730" x2="2728" y1="501" y2="501"/>
<line clip-path="url(#clipPath2)" fill="none" x1="101" x2="103" y1="480" y2="480"/>
<line clip-path="url(#clipPath2)" fill="none" x1="2730" x2="2728" y1="480" y2="480"/>
<line clip-path="url(#clipPath2)" fill="none" x1="101" x2="103" y1="458" y2="458"/>
<line clip-path="url(#clipPath2)" fill="none" x1="2730" x2="2728" y1="458" y2="458"/>
<line clip-path="url(#clipPath2)" fill="none" x1="99" x2="103" y1="436" y2="436"/>
<line clip-path="url(#clipPath2)" fill="none" x1="2732" x2="2728" y1="436" y2="436"/>
<text xml:space="preserve" x="28" y="437" clip-path="url(#clipPath2)" stroke="none">3000000000</text>
<text xml:space="preserve" x="2735" y="437" clip-path="url(#clipPath2)" stroke="none">3000000000</text>
<line clip-path="url(#clipPath2)" fill="none" x1="101" x2="103" y1="414" y2="414"/>
<line clip-path="url(#clipPath2)" fill="none" x1="2730" x2="2728" y1="414" y2="414"/>
<line clip-path="url(#clipPath2)" fill="none" x1="101" x2="103" y1="392" y2="392"/>
<line clip-path="url(#clipPath2)" fill="none" x1="2730" x2="2728" y1="392" y2="392"/>
<line clip-path="url(#clipPath2)" fill="none" x1="101" x2="103" y1="370" y2="370"/>
<line clip-path="url(#clipPath2)" fill="none" x1="2730" x2="2728" y1="370" y2="370"/>
<line clip-path="url(#clipPath2)" fill="none" x1="101" x2="103" y1="349" y2="349"/>
<line clip-path="url(#clipPath2)" fill="none" x1="2730" x2="2728" y1="349" y2="349"/>
<line clip-path="url(#clipPath2)" fill="none" x1="99" x2="103" y1="327" y2="327"/>
<line clip-path="url(#clipPath2)" fill="none" x1="2732" x2="2728" y1="327" y2="327"/>
<text xml:space="preserve" x="28" y="328" clip-path="url(#clipPath2)" stroke="none">3500000000</text>
<text xml:space="preserve" x="2735" y="328" clip-path="url(#clipPath2)" stroke="none">3500000000</text>
<line clip-path="url(#clipPath2)" fill="none" x1="101" x2="103" y1="305" y2="305"/>
<line clip-path="url(#clipPath2)" fill="none" x1="2730" x2="2728" y1="305" y2="305"/>
<line clip-path="url(#clipPath2)" fill="none" x1="101" x2="103" y1="283" y2="283"/>
<line clip-path="url(#clipPath2)" fill="none" x1="2730" x2="2728" y1="283" y2="283"/>
<line clip-path="url(#clipPath2)" fill="none" x1="101" x2="103" y1="261" y2="261"/>
<line clip-path="url(#clipPath2)" fill="none" x1="2730" x2="2728" y1="261" y2="261"/>
<line clip-path="url(#clipPath2)" fill="none" x1="101" x2="103" y1="239" y2="239"/>
<line clip-path="url(#clipPath2)" fill="none" x1="2730" x2="2728" y1="239" y2="239"/>
<line clip-path="url(#clipPath2)" fill="none" x1="99" x2="103" y1="218" y2="218"/>
<line clip-path="url(#clipPath2)" fill="none" x1="2732" x2="2728" y1="218" y2="218"/>
<text xml:space="preserve" x="28" y="219" clip-path="url(#clipPath2)" stroke="none">4000000000</text>
<text xml:space="preserve" x="2735" y="219" clip-path="url(#clipPath2)" stroke="none">4000000000</text>
<line clip-path="url(#clipPath2)" fill="none" x1="101" x2="103" y1="196" y2="196"/>
<line clip-path="url(#clipPath2)" fill="none" x1="2730" x2="2728" y1="196" y2="196"/>
<line clip-path="url(#clipPath2)" fill="none" x1="101" x2="103" y1="174" y2="174"/>
<line clip-path="url(#clipPath2)" fill="none" x1="2730" x2="2728" y1="174" y2="174"/>
<line clip-path="url(#clipPath2)" fill="none" x1="101" x2="103" y1="152" y2="152"/>
<line clip-path="url(#clipPath2)" fill="none" x1="2730" x2="2728" y1="152" y2="152"/>
<line clip-path="url(#clipPath2)" fill="none" x1="101" x2="103" y1="130" y2="130"/>
<line clip-path="url(#clipPath2)" fill="none" x1="2730" x2="2728" y1="130" y2="130"/>
<line clip-path="url(#clipPath2)" fill="none" x1="99" x2="103" y1="109" y2="109"/>
<line clip-path="url(#clipPath2)" fill="none" x1="2732" x2="2728" y1="109" y2="109"/>
<text xml:space="preserve" x="28" y="110" clip-path="url(#clipPath2)" stroke="none">4500000000</text>
<text xml:space="preserve" x="2735" y="110" clip-path="url(#clipPath2)" stroke="none">4500000000</text>
<line clip-path="url(#clipPath2)" fill="none" x1="101" x2="103" y1="87" y2="87"/>
<line clip-path="url(#clipPath2)" fill="none" x1="2730" x2="2728" y1="87" y2="87"/>
<line clip-path="url(#clipPath2)" fill="none" x1="101" x2="103" y1="65" y2="65"/>
<line clip-path="url(#clipPath2)" fill="none" x1="2730" x2="2728" y1="65" y2="65"/>
<line clip-path="url(#clipPath2)" fill="none" x1="101" x2="103" y1="43" y2="43"/>
<line clip-path="url(#clipPath2)" fill="none" x1="2730" x2="2728" y1="43" y2="43"/>
<line clip-path="url(#clipPath2)" fill="none" x1="101" x2="103" y1="21" y2="21"/>
<line clip-path="url(#clipPath2)" fill="none" x1="2730" x2="2728" y1="21" y2="21"/>
<line clip-path="url(#clipPath4)" fill="none" x1="123" x2="227" y1="1095" y2="1095"/>
<line clip-path="url(#clipPath4)" fill="none" x1="254" x2="357" y1="1095" y2="1095"/>
<line clip-path="url(#clipPath4)" fill="none" x1="384" x2="488" y1="1095" y2="1095"/>
<line clip-path="url(#clipPath4)" fill="none" x1="515" x2="618" y1="1095" y2="1095"/>
<line clip-path="url(#clipPath4)" fill="none" x1="645" x2="749" y1="1095" y2="1095"/>
<line clip-path="url(#clipPath4)" fill="none" x1="776" x2="879" y1="1095" y2="1095"/>
<line clip-path="url(#clipPath4)" fill="none" x1="906" x2="1010" y1="1095" y2="1095"/>
<line clip-path="url(#clipPath4)" fill="none" x1="1037" x2="1140" y1="1095" y2="1095"/>
<line clip-path="url(#clipPath4)" fill="none" x1="1167" x2="1271" y1="1095" y2="1095"/>
<line clip-path="url(#clipPath4)" fill="none" x1="1298" x2="1401" y1="1095" y2="1095"/>
<line clip-path="url(#clipPath4)" fill="none" x1="1428" x2="1531" y1="1095" y2="1095"/>
<line clip-path="url(#clipPath4)" fill="none" x1="1559" x2="1662" y1="1095" y2="1095"/>
<line clip-path="url(#clipPath4)" fill="none" x1="1689" x2="1792" y1="1095" y2="1095"/>
<line clip-path="url(#clipPath4)" fill="none" x1="1819" x2="1923" y1="1095" y2="1095"/>
<line clip-path="url(#clipPath4)" fill="none" x1="1950" x2="2053" y1="1095" y2="1095"/>
<line clip-path="url(#clipPath4)" fill="none" x1="2080" x2="2184" y1="1095" y2="1095"/>
<line clip-path="url(#clipPath4)" fill="none" x1="2211" x2="2314" y1="1095" y2="1095"/>
<line clip-path="url(#clipPath4)" fill="none" x1="2341" x2="2445" y1="1095" y2="1095"/>
<line clip-path="url(#clipPath4)" fill="none" x1="2472" x2="2575" y1="1095" y2="1095"/>
<line clip-path="url(#clipPath4)" fill="none" x1="2602" x2="2706" y1="1095" y2="1095"/>
<text xml:space="preserve" x="123" y="1106" clip-path="url(#clipPath4)" stroke="none">TuCsNet.irbServer[0].eth[0].inputHook[0]</text>
<text xml:space="preserve" x="254" y="1106" clip-path="url(#clipPath4)" stroke="none">TuCsNet.irbServer[0].eth[0].outputHook[0]</text>
<text xml:space="preserve" x="384" y="1106" clip-path="url(#clipPath4)" stroke="none">TuCsNet.irbServer[1].eth[0].inputHook[0]</text>
<text xml:space="preserve" x="515" y="1106" clip-path="url(#clipPath4)" stroke="none">TuCsNet.irbServer[1].eth[0].outputHook[0]</text>
<text xml:space="preserve" x="645" y="1106" clip-path="url(#clipPath4)" stroke="none">TuCsNet.irbServer[2].eth[0].inputHook[0]</text>
<text xml:space="preserve" x="776" y="1106" clip-path="url(#clipPath4)" stroke="none">TuCsNet.irbServer[2].eth[0].outputHook[0]</text>
<text xml:space="preserve" x="906" y="1106" clip-path="url(#clipPath4)" stroke="none">TuCsNet.irbServer[3].eth[0].inputHook[0]</text>
<text xml:space="preserve" x="1037" y="1106" clip-path="url(#clipPath4)" stroke="none">TuCsNet.irbServer[3].eth[0].outputHook[0]</text>
<text xml:space="preserve" x="1167" y="1106" clip-path="url(#clipPath4)" stroke="none">TuCsNet.irbServer[4].eth[0].inputHook[0]</text>
<text xml:space="preserve" x="1298" y="1106" clip-path="url(#clipPath4)" stroke="none">TuCsNet.irbServer[4].eth[0].outputHook[0]</text>
<text xml:space="preserve" x="1428" y="1106" clip-path="url(#clipPath4)" stroke="none">TuCsNet.irbServer[5].eth[0].inputHook[0]</text>
<text xml:space="preserve" x="1559" y="1106" clip-path="url(#clipPath4)" stroke="none">TuCsNet.irbServer[5].eth[0].outputHook[0]</text>
<text xml:space="preserve" x="1689" y="1106" clip-path="url(#clipPath4)" stroke="none">TuCsNet.irbServer[6].eth[0].inputHook[0]</text>
<text xml:space="preserve" x="1819" y="1106" clip-path="url(#clipPath4)" stroke="none">TuCsNet.irbServer[6].eth[0].outputHook[0]</text>
<text xml:space="preserve" x="1950" y="1106" clip-path="url(#clipPath4)" stroke="none">TuCsNet.irbServer[7].eth[0].inputHook[0]</text>
<text xml:space="preserve" x="2080" y="1106" clip-path="url(#clipPath4)" stroke="none">TuCsNet.irbServer[7].eth[0].outputHook[0]</text>
<text xml:space="preserve" x="2211" y="1106" clip-path="url(#clipPath4)" stroke="none">TuCsNet.irbServer[8].eth[0].inputHook[0]</text>
<text xml:space="preserve" x="2341" y="1106" clip-path="url(#clipPath4)" stroke="none">TuCsNet.irbServer[8].eth[0].outputHook[0]</text>
<text xml:space="preserve" x="2472" y="1106" clip-path="url(#clipPath4)" stroke="none">TuCsNet.irbServer[9].eth[0].inputHook[0]</text>
<text xml:space="preserve" x="2602" y="1106" clip-path="url(#clipPath4)" stroke="none">TuCsNet.irbServer[9].eth[0].outputHook[0]</text>
<text x="1325" font-size="13" y="1168" clip-path="url(#clipPath4)" stroke="none" xml:space="preserve">Ein- und Ausgabeport</text>
</g>
</g>
</svg>
