<?xml version="1.0" encoding="UTF-8"?><svg xmlns="http://www.w3.org/2000/svg" xmlns:xlink="http://www.w3.org/1999/xlink" stroke-dasharray="none" shape-rendering="auto" font-family="'Dialog'" width="2127" text-rendering="auto" fill-opacity="1" contentScriptType="text/ecmascript" color-interpolation="auto" color-rendering="auto" preserveAspectRatio="xMidYMid meet" font-size="12" fill="black" stroke="black" image-rendering="auto" stroke-miterlimit="10" zoomAndPan="magnify" version="1.0" stroke-linecap="square" stroke-linejoin="miter" contentStyleType="text/css" font-style="normal" height="1362" stroke-width="1" stroke-dashoffset="0" font-weight="normal" stroke-opacity="1">
<!--Generated by the Batik Graphics2D SVG Generator-->
<defs id="genericDefs"/>
<g>
<defs id="defs1">
<clipPath clipPathUnits="userSpaceOnUse" id="clipPath1">
<path d="M45 9 L2082 9 L2082 1333 L45 1333 L45 9 Z"/>
</clipPath>
<clipPath clipPathUnits="userSpaceOnUse" id="clipPath2">
<path d="M-1 -1 L2128 -1 L2128 1363 L-1 1363 L-1 -1 Z"/>
</clipPath>
<clipPath clipPathUnits="userSpaceOnUse" id="clipPath3">
<path d="M45 1331 L2082 1331 L2082 1363 L45 1363 L45 1331 Z"/>
</clipPath>
</defs>
<g fill="white" text-rendering="geometricPrecision" font-family="'Segoe UI'" stroke-linejoin="round" stroke="white" stroke-width="0" stroke-miterlimit="0">
<rect x="46" y="10" clip-path="url(#clipPath1)" width="2035" height="1322" stroke="none"/>
</g>
<g stroke-linecap="butt" fill="rgb(204,204,204)" text-rendering="geometricPrecision" font-family="'Segoe UI'" stroke-dasharray="3,3" stroke="rgb(204,204,204)">
<line clip-path="url(#clipPath1)" fill="none" x1="46" x2="2081" y1="1332" y2="1332"/>
<line clip-path="url(#clipPath1)" fill="none" x1="46" x2="2081" y1="1256" y2="1256"/>
<line clip-path="url(#clipPath1)" fill="none" x1="46" x2="2081" y1="1181" y2="1181"/>
<line clip-path="url(#clipPath1)" fill="none" x1="46" x2="2081" y1="1106" y2="1106"/>
<line clip-path="url(#clipPath1)" fill="none" x1="46" x2="2081" y1="1030" y2="1030"/>
<line clip-path="url(#clipPath1)" fill="none" x1="46" x2="2081" y1="955" y2="955"/>
<line clip-path="url(#clipPath1)" fill="none" x1="46" x2="2081" y1="880" y2="880"/>
<line clip-path="url(#clipPath1)" fill="none" x1="46" x2="2081" y1="805" y2="805"/>
<line clip-path="url(#clipPath1)" fill="none" x1="46" x2="2081" y1="729" y2="729"/>
<line clip-path="url(#clipPath1)" fill="none" x1="46" x2="2081" y1="654" y2="654"/>
<line clip-path="url(#clipPath1)" fill="none" x1="46" x2="2081" y1="579" y2="579"/>
<line clip-path="url(#clipPath1)" fill="none" x1="46" x2="2081" y1="503" y2="503"/>
<line clip-path="url(#clipPath1)" fill="none" x1="46" x2="2081" y1="428" y2="428"/>
<line clip-path="url(#clipPath1)" fill="none" x1="46" x2="2081" y1="353" y2="353"/>
<line clip-path="url(#clipPath1)" fill="none" x1="46" x2="2081" y1="278" y2="278"/>
<line clip-path="url(#clipPath1)" fill="none" x1="46" x2="2081" y1="202" y2="202"/>
<line clip-path="url(#clipPath1)" fill="none" x1="46" x2="2081" y1="127" y2="127"/>
<line clip-path="url(#clipPath1)" fill="none" x1="46" x2="2081" y1="52" y2="52"/>
<rect x="2059" y="1036" clip-path="url(#clipPath1)" fill="rgb(0,0,139)" width="10" height="295" stroke="none"/>
<rect x="2059" y="1036" clip-path="url(#clipPath1)" fill="none" width="10" stroke-dasharray="none" height="295"/>
<rect x="2043" y="988" clip-path="url(#clipPath1)" fill="rgb(160,32,240)" width="10" stroke-dasharray="none" height="343" stroke="none"/>
<rect x="2043" y="988" clip-path="url(#clipPath1)" fill="none" width="10" stroke-dasharray="none" height="343"/>
<rect x="2027" y="882" clip-path="url(#clipPath1)" fill="black" width="10" stroke-dasharray="none" height="449" stroke="none"/>
<rect x="2027" y="882" clip-path="url(#clipPath1)" fill="none" width="10" stroke-dasharray="none" height="449"/>
<rect x="2011" y="1045" clip-path="url(#clipPath1)" fill="yellow" width="10" stroke-dasharray="none" height="286" stroke="none"/>
<rect x="2011" y="1045" clip-path="url(#clipPath1)" fill="none" width="10" stroke-dasharray="none" height="286"/>
<rect x="1994" y="1099" clip-path="url(#clipPath1)" fill="rgb(128,128,255)" width="10" stroke-dasharray="none" height="232" stroke="none"/>
<rect x="1994" y="1099" clip-path="url(#clipPath1)" fill="none" width="10" stroke-dasharray="none" height="232"/>
<rect x="1978" y="927" clip-path="url(#clipPath1)" fill="olive" width="10" stroke-dasharray="none" height="404" stroke="none"/>
<rect x="1978" y="927" clip-path="url(#clipPath1)" fill="none" width="10" stroke-dasharray="none" height="404"/>
<rect x="1962" y="1043" clip-path="url(#clipPath1)" fill="aqua" width="10" stroke-dasharray="none" height="288" stroke="none"/>
<rect x="1962" y="1043" clip-path="url(#clipPath1)" fill="none" width="10" stroke-dasharray="none" height="288"/>
<rect x="1946" y="1071" clip-path="url(#clipPath1)" fill="teal" width="10" stroke-dasharray="none" height="260" stroke="none"/>
<rect x="1946" y="1071" clip-path="url(#clipPath1)" fill="none" width="10" stroke-dasharray="none" height="260"/>
<rect x="1930" y="993" clip-path="url(#clipPath1)" fill="rgb(160,0,0)" width="10" stroke-dasharray="none" height="338" stroke="none"/>
<rect x="1930" y="993" clip-path="url(#clipPath1)" fill="none" width="10" stroke-dasharray="none" height="338"/>
<rect x="1914" y="1049" clip-path="url(#clipPath1)" fill="rgb(169,169,169)" width="10" stroke-dasharray="none" height="282" stroke="none"/>
<rect x="1914" y="1049" clip-path="url(#clipPath1)" fill="none" width="10" stroke-dasharray="none" height="282"/>
<rect x="1897" y="935" clip-path="url(#clipPath1)" fill="green" width="10" stroke-dasharray="none" height="396" stroke="none"/>
<rect x="1897" y="935" clip-path="url(#clipPath1)" fill="none" width="10" stroke-dasharray="none" height="396"/>
<rect x="1881" y="942" clip-path="url(#clipPath1)" fill="rgb(255,165,0)" width="10" stroke-dasharray="none" height="389" stroke="none"/>
<rect x="1881" y="942" clip-path="url(#clipPath1)" fill="none" width="10" stroke-dasharray="none" height="389"/>
<rect x="1865" y="980" clip-path="url(#clipPath1)" fill="rgb(0,100,0)" width="10" stroke-dasharray="none" height="351" stroke="none"/>
<rect x="1865" y="980" clip-path="url(#clipPath1)" fill="none" width="10" stroke-dasharray="none" height="351"/>
<rect x="1849" y="388" clip-path="url(#clipPath1)" fill="rgb(238,0,0)" width="10" stroke-dasharray="none" height="943" stroke="none"/>
<rect x="1849" y="388" clip-path="url(#clipPath1)" fill="none" width="10" stroke-dasharray="none" height="943"/>
<rect x="1833" y="312" clip-path="url(#clipPath1)" fill="rgb(0,0,139)" width="10" stroke-dasharray="none" height="1019" stroke="none"/>
<rect x="1833" y="312" clip-path="url(#clipPath1)" fill="none" width="10" stroke-dasharray="none" height="1019"/>
<rect x="1763" y="1019" clip-path="url(#clipPath1)" fill="rgb(0,0,139)" width="10" stroke-dasharray="none" height="312" stroke="none"/>
<rect x="1763" y="1019" clip-path="url(#clipPath1)" fill="none" width="10" stroke-dasharray="none" height="312"/>
<rect x="1747" y="1042" clip-path="url(#clipPath1)" fill="rgb(160,32,240)" width="10" stroke-dasharray="none" height="289" stroke="none"/>
<rect x="1747" y="1042" clip-path="url(#clipPath1)" fill="none" width="10" stroke-dasharray="none" height="289"/>
<rect x="1731" y="979" clip-path="url(#clipPath1)" fill="black" width="10" stroke-dasharray="none" height="352" stroke="none"/>
<rect x="1731" y="979" clip-path="url(#clipPath1)" fill="none" width="10" stroke-dasharray="none" height="352"/>
<rect x="1714" y="1028" clip-path="url(#clipPath1)" fill="yellow" width="10" stroke-dasharray="none" height="303" stroke="none"/>
<rect x="1714" y="1028" clip-path="url(#clipPath1)" fill="none" width="10" stroke-dasharray="none" height="303"/>
<rect x="1698" y="985" clip-path="url(#clipPath1)" fill="rgb(128,128,255)" width="10" stroke-dasharray="none" height="346" stroke="none"/>
<rect x="1698" y="985" clip-path="url(#clipPath1)" fill="none" width="10" stroke-dasharray="none" height="346"/>
<rect x="1682" y="1001" clip-path="url(#clipPath1)" fill="olive" width="10" stroke-dasharray="none" height="330" stroke="none"/>
<rect x="1682" y="1001" clip-path="url(#clipPath1)" fill="none" width="10" stroke-dasharray="none" height="330"/>
<rect x="1666" y="991" clip-path="url(#clipPath1)" fill="aqua" width="10" stroke-dasharray="none" height="340" stroke="none"/>
<rect x="1666" y="991" clip-path="url(#clipPath1)" fill="none" width="10" stroke-dasharray="none" height="340"/>
<rect x="1650" y="1145" clip-path="url(#clipPath1)" fill="teal" width="10" stroke-dasharray="none" height="186" stroke="none"/>
<rect x="1650" y="1145" clip-path="url(#clipPath1)" fill="none" width="10" stroke-dasharray="none" height="186"/>
<rect x="1634" y="1031" clip-path="url(#clipPath1)" fill="rgb(160,0,0)" width="10" stroke-dasharray="none" height="300" stroke="none"/>
<rect x="1634" y="1031" clip-path="url(#clipPath1)" fill="none" width="10" stroke-dasharray="none" height="300"/>
<rect x="1618" y="961" clip-path="url(#clipPath1)" fill="rgb(169,169,169)" width="10" stroke-dasharray="none" height="370" stroke="none"/>
<rect x="1618" y="961" clip-path="url(#clipPath1)" fill="none" width="10" stroke-dasharray="none" height="370"/>
<rect x="1601" y="1017" clip-path="url(#clipPath1)" fill="green" width="10" stroke-dasharray="none" height="314" stroke="none"/>
<rect x="1601" y="1017" clip-path="url(#clipPath1)" fill="none" width="10" stroke-dasharray="none" height="314"/>
<rect x="1585" y="1001" clip-path="url(#clipPath1)" fill="rgb(255,165,0)" width="10" stroke-dasharray="none" height="330" stroke="none"/>
<rect x="1585" y="1001" clip-path="url(#clipPath1)" fill="none" width="10" stroke-dasharray="none" height="330"/>
<rect x="1569" y="1038" clip-path="url(#clipPath1)" fill="rgb(0,100,0)" width="10" stroke-dasharray="none" height="293" stroke="none"/>
<rect x="1569" y="1038" clip-path="url(#clipPath1)" fill="none" width="10" stroke-dasharray="none" height="293"/>
<rect x="1553" y="503" clip-path="url(#clipPath1)" fill="rgb(238,0,0)" width="10" stroke-dasharray="none" height="828" stroke="none"/>
<rect x="1553" y="503" clip-path="url(#clipPath1)" fill="none" width="10" stroke-dasharray="none" height="828"/>
<rect x="1537" y="460" clip-path="url(#clipPath1)" fill="rgb(0,0,139)" width="10" stroke-dasharray="none" height="871" stroke="none"/>
<rect x="1537" y="460" clip-path="url(#clipPath1)" fill="none" width="10" stroke-dasharray="none" height="871"/>
<rect x="1467" y="1004" clip-path="url(#clipPath1)" fill="rgb(0,0,139)" width="10" stroke-dasharray="none" height="327" stroke="none"/>
<rect x="1467" y="1004" clip-path="url(#clipPath1)" fill="none" width="10" stroke-dasharray="none" height="327"/>
<rect x="1451" y="991" clip-path="url(#clipPath1)" fill="rgb(160,32,240)" width="10" stroke-dasharray="none" height="340" stroke="none"/>
<rect x="1451" y="991" clip-path="url(#clipPath1)" fill="none" width="10" stroke-dasharray="none" height="340"/>
<rect x="1434" y="875" clip-path="url(#clipPath1)" fill="black" width="10" stroke-dasharray="none" height="456" stroke="none"/>
<rect x="1434" y="875" clip-path="url(#clipPath1)" fill="none" width="10" stroke-dasharray="none" height="456"/>
<rect x="1418" y="999" clip-path="url(#clipPath1)" fill="yellow" width="10" stroke-dasharray="none" height="332" stroke="none"/>
<rect x="1418" y="999" clip-path="url(#clipPath1)" fill="none" width="10" stroke-dasharray="none" height="332"/>
<rect x="1402" y="1031" clip-path="url(#clipPath1)" fill="rgb(128,128,255)" width="10" stroke-dasharray="none" height="300" stroke="none"/>
<rect x="1402" y="1031" clip-path="url(#clipPath1)" fill="none" width="10" stroke-dasharray="none" height="300"/>
<rect x="1386" y="1051" clip-path="url(#clipPath1)" fill="olive" width="10" stroke-dasharray="none" height="280" stroke="none"/>
<rect x="1386" y="1051" clip-path="url(#clipPath1)" fill="none" width="10" stroke-dasharray="none" height="280"/>
<rect x="1370" y="1055" clip-path="url(#clipPath1)" fill="aqua" width="10" stroke-dasharray="none" height="276" stroke="none"/>
<rect x="1370" y="1055" clip-path="url(#clipPath1)" fill="none" width="10" stroke-dasharray="none" height="276"/>
<rect x="1354" y="1091" clip-path="url(#clipPath1)" fill="teal" width="10" stroke-dasharray="none" height="240" stroke="none"/>
<rect x="1354" y="1091" clip-path="url(#clipPath1)" fill="none" width="10" stroke-dasharray="none" height="240"/>
<rect x="1338" y="999" clip-path="url(#clipPath1)" fill="rgb(160,0,0)" width="10" stroke-dasharray="none" height="332" stroke="none"/>
<rect x="1338" y="999" clip-path="url(#clipPath1)" fill="none" width="10" stroke-dasharray="none" height="332"/>
<rect x="1321" y="1020" clip-path="url(#clipPath1)" fill="rgb(169,169,169)" width="10" stroke-dasharray="none" height="311" stroke="none"/>
<rect x="1321" y="1020" clip-path="url(#clipPath1)" fill="none" width="10" stroke-dasharray="none" height="311"/>
<rect x="1305" y="986" clip-path="url(#clipPath1)" fill="green" width="10" stroke-dasharray="none" height="345" stroke="none"/>
<rect x="1305" y="986" clip-path="url(#clipPath1)" fill="none" width="10" stroke-dasharray="none" height="345"/>
<rect x="1289" y="1019" clip-path="url(#clipPath1)" fill="rgb(255,165,0)" width="10" stroke-dasharray="none" height="312" stroke="none"/>
<rect x="1289" y="1019" clip-path="url(#clipPath1)" fill="none" width="10" stroke-dasharray="none" height="312"/>
<rect x="1273" y="887" clip-path="url(#clipPath1)" fill="rgb(0,100,0)" width="10" stroke-dasharray="none" height="444" stroke="none"/>
<rect x="1273" y="887" clip-path="url(#clipPath1)" fill="none" width="10" stroke-dasharray="none" height="444"/>
<rect x="1257" y="554" clip-path="url(#clipPath1)" fill="rgb(238,0,0)" width="10" stroke-dasharray="none" height="777" stroke="none"/>
<rect x="1257" y="554" clip-path="url(#clipPath1)" fill="none" width="10" stroke-dasharray="none" height="777"/>
<rect x="1241" y="399" clip-path="url(#clipPath1)" fill="rgb(0,0,139)" width="10" stroke-dasharray="none" height="932" stroke="none"/>
<rect x="1241" y="399" clip-path="url(#clipPath1)" fill="none" width="10" stroke-dasharray="none" height="932"/>
<rect x="1171" y="989" clip-path="url(#clipPath1)" fill="rgb(0,0,139)" width="10" stroke-dasharray="none" height="342" stroke="none"/>
<rect x="1171" y="989" clip-path="url(#clipPath1)" fill="none" width="10" stroke-dasharray="none" height="342"/>
<rect x="1155" y="924" clip-path="url(#clipPath1)" fill="rgb(160,32,240)" width="10" stroke-dasharray="none" height="407" stroke="none"/>
<rect x="1155" y="924" clip-path="url(#clipPath1)" fill="none" width="10" stroke-dasharray="none" height="407"/>
<rect x="1138" y="950" clip-path="url(#clipPath1)" fill="black" width="10" stroke-dasharray="none" height="381" stroke="none"/>
<rect x="1138" y="950" clip-path="url(#clipPath1)" fill="none" width="10" stroke-dasharray="none" height="381"/>
<rect x="1122" y="1072" clip-path="url(#clipPath1)" fill="yellow" width="10" stroke-dasharray="none" height="259" stroke="none"/>
<rect x="1122" y="1072" clip-path="url(#clipPath1)" fill="none" width="10" stroke-dasharray="none" height="259"/>
<rect x="1106" y="1112" clip-path="url(#clipPath1)" fill="rgb(128,128,255)" width="10" stroke-dasharray="none" height="219" stroke="none"/>
<rect x="1106" y="1112" clip-path="url(#clipPath1)" fill="none" width="10" stroke-dasharray="none" height="219"/>
<rect x="1090" y="1041" clip-path="url(#clipPath1)" fill="olive" width="10" stroke-dasharray="none" height="290" stroke="none"/>
<rect x="1090" y="1041" clip-path="url(#clipPath1)" fill="none" width="10" stroke-dasharray="none" height="290"/>
<rect x="1074" y="1084" clip-path="url(#clipPath1)" fill="aqua" width="10" stroke-dasharray="none" height="247" stroke="none"/>
<rect x="1074" y="1084" clip-path="url(#clipPath1)" fill="none" width="10" stroke-dasharray="none" height="247"/>
<rect x="1058" y="979" clip-path="url(#clipPath1)" fill="teal" width="10" stroke-dasharray="none" height="352" stroke="none"/>
<rect x="1058" y="979" clip-path="url(#clipPath1)" fill="none" width="10" stroke-dasharray="none" height="352"/>
<rect x="1041" y="861" clip-path="url(#clipPath1)" fill="rgb(160,0,0)" width="10" stroke-dasharray="none" height="470" stroke="none"/>
<rect x="1041" y="861" clip-path="url(#clipPath1)" fill="none" width="10" stroke-dasharray="none" height="470"/>
<rect x="1025" y="1013" clip-path="url(#clipPath1)" fill="rgb(169,169,169)" width="10" stroke-dasharray="none" height="318" stroke="none"/>
<rect x="1025" y="1013" clip-path="url(#clipPath1)" fill="none" width="10" stroke-dasharray="none" height="318"/>
<rect x="1009" y="903" clip-path="url(#clipPath1)" fill="green" width="10" stroke-dasharray="none" height="428" stroke="none"/>
<rect x="1009" y="903" clip-path="url(#clipPath1)" fill="none" width="10" stroke-dasharray="none" height="428"/>
<rect x="993" y="1097" clip-path="url(#clipPath1)" fill="rgb(255,165,0)" width="10" stroke-dasharray="none" height="234" stroke="none"/>
<rect x="993" y="1097" clip-path="url(#clipPath1)" fill="none" width="10" stroke-dasharray="none" height="234"/>
<rect x="977" y="1025" clip-path="url(#clipPath1)" fill="rgb(0,100,0)" width="10" stroke-dasharray="none" height="306" stroke="none"/>
<rect x="977" y="1025" clip-path="url(#clipPath1)" fill="none" width="10" stroke-dasharray="none" height="306"/>
<rect x="961" y="525" clip-path="url(#clipPath1)" fill="rgb(238,0,0)" width="10" stroke-dasharray="none" height="806" stroke="none"/>
<rect x="961" y="525" clip-path="url(#clipPath1)" fill="none" width="10" stroke-dasharray="none" height="806"/>
<rect x="945" y="394" clip-path="url(#clipPath1)" fill="rgb(0,0,139)" width="10" stroke-dasharray="none" height="937" stroke="none"/>
<rect x="945" y="394" clip-path="url(#clipPath1)" fill="none" width="10" stroke-dasharray="none" height="937"/>
<rect x="875" y="976" clip-path="url(#clipPath1)" fill="rgb(0,0,139)" width="10" stroke-dasharray="none" height="355" stroke="none"/>
<rect x="875" y="976" clip-path="url(#clipPath1)" fill="none" width="10" stroke-dasharray="none" height="355"/>
<rect x="858" y="974" clip-path="url(#clipPath1)" fill="rgb(160,32,240)" width="10" stroke-dasharray="none" height="357" stroke="none"/>
<rect x="858" y="974" clip-path="url(#clipPath1)" fill="none" width="10" stroke-dasharray="none" height="357"/>
<rect x="842" y="926" clip-path="url(#clipPath1)" fill="black" width="10" stroke-dasharray="none" height="405" stroke="none"/>
<rect x="842" y="926" clip-path="url(#clipPath1)" fill="none" width="10" stroke-dasharray="none" height="405"/>
<rect x="826" y="1049" clip-path="url(#clipPath1)" fill="yellow" width="10" stroke-dasharray="none" height="282" stroke="none"/>
<rect x="826" y="1049" clip-path="url(#clipPath1)" fill="none" width="10" stroke-dasharray="none" height="282"/>
<rect x="810" y="950" clip-path="url(#clipPath1)" fill="rgb(128,128,255)" width="10" stroke-dasharray="none" height="381" stroke="none"/>
<rect x="810" y="950" clip-path="url(#clipPath1)" fill="none" width="10" stroke-dasharray="none" height="381"/>
<rect x="794" y="1084" clip-path="url(#clipPath1)" fill="olive" width="10" stroke-dasharray="none" height="247" stroke="none"/>
<rect x="794" y="1084" clip-path="url(#clipPath1)" fill="none" width="10" stroke-dasharray="none" height="247"/>
<rect x="778" y="987" clip-path="url(#clipPath1)" fill="aqua" width="10" stroke-dasharray="none" height="344" stroke="none"/>
<rect x="778" y="987" clip-path="url(#clipPath1)" fill="none" width="10" stroke-dasharray="none" height="344"/>
<rect x="762" y="970" clip-path="url(#clipPath1)" fill="teal" width="10" stroke-dasharray="none" height="361" stroke="none"/>
<rect x="762" y="970" clip-path="url(#clipPath1)" fill="none" width="10" stroke-dasharray="none" height="361"/>
<rect x="745" y="1016" clip-path="url(#clipPath1)" fill="rgb(160,0,0)" width="10" stroke-dasharray="none" height="315" stroke="none"/>
<rect x="745" y="1016" clip-path="url(#clipPath1)" fill="none" width="10" stroke-dasharray="none" height="315"/>
<rect x="729" y="962" clip-path="url(#clipPath1)" fill="rgb(169,169,169)" width="10" stroke-dasharray="none" height="369" stroke="none"/>
<rect x="729" y="962" clip-path="url(#clipPath1)" fill="none" width="10" stroke-dasharray="none" height="369"/>
<rect x="713" y="784" clip-path="url(#clipPath1)" fill="green" width="10" stroke-dasharray="none" height="547" stroke="none"/>
<rect x="713" y="784" clip-path="url(#clipPath1)" fill="none" width="10" stroke-dasharray="none" height="547"/>
<rect x="697" y="1008" clip-path="url(#clipPath1)" fill="rgb(255,165,0)" width="10" stroke-dasharray="none" height="323" stroke="none"/>
<rect x="697" y="1008" clip-path="url(#clipPath1)" fill="none" width="10" stroke-dasharray="none" height="323"/>
<rect x="681" y="923" clip-path="url(#clipPath1)" fill="rgb(0,100,0)" width="10" stroke-dasharray="none" height="408" stroke="none"/>
<rect x="681" y="923" clip-path="url(#clipPath1)" fill="none" width="10" stroke-dasharray="none" height="408"/>
<rect x="665" y="512" clip-path="url(#clipPath1)" fill="rgb(238,0,0)" width="10" stroke-dasharray="none" height="819" stroke="none"/>
<rect x="665" y="512" clip-path="url(#clipPath1)" fill="none" width="10" stroke-dasharray="none" height="819"/>
<rect x="648" y="280" clip-path="url(#clipPath1)" fill="rgb(0,0,139)" width="10" stroke-dasharray="none" height="1051" stroke="none"/>
<rect x="648" y="280" clip-path="url(#clipPath1)" fill="none" width="10" stroke-dasharray="none" height="1051"/>
<rect x="578" y="603" clip-path="url(#clipPath1)" fill="rgb(0,0,139)" width="10" stroke-dasharray="none" height="728" stroke="none"/>
<rect x="578" y="603" clip-path="url(#clipPath1)" fill="none" width="10" stroke-dasharray="none" height="728"/>
<rect x="562" y="994" clip-path="url(#clipPath1)" fill="rgb(160,32,240)" width="10" stroke-dasharray="none" height="337" stroke="none"/>
<rect x="562" y="994" clip-path="url(#clipPath1)" fill="none" width="10" stroke-dasharray="none" height="337"/>
<rect x="546" y="841" clip-path="url(#clipPath1)" fill="black" width="10" stroke-dasharray="none" height="490" stroke="none"/>
<rect x="546" y="841" clip-path="url(#clipPath1)" fill="none" width="10" stroke-dasharray="none" height="490"/>
<rect x="530" y="1031" clip-path="url(#clipPath1)" fill="yellow" width="10" stroke-dasharray="none" height="300" stroke="none"/>
<rect x="530" y="1031" clip-path="url(#clipPath1)" fill="none" width="10" stroke-dasharray="none" height="300"/>
<rect x="514" y="975" clip-path="url(#clipPath1)" fill="rgb(128,128,255)" width="10" stroke-dasharray="none" height="356" stroke="none"/>
<rect x="514" y="975" clip-path="url(#clipPath1)" fill="none" width="10" stroke-dasharray="none" height="356"/>
<rect x="498" y="1047" clip-path="url(#clipPath1)" fill="olive" width="10" stroke-dasharray="none" height="284" stroke="none"/>
<rect x="498" y="1047" clip-path="url(#clipPath1)" fill="none" width="10" stroke-dasharray="none" height="284"/>
<rect x="482" y="1043" clip-path="url(#clipPath1)" fill="aqua" width="10" stroke-dasharray="none" height="288" stroke="none"/>
<rect x="482" y="1043" clip-path="url(#clipPath1)" fill="none" width="10" stroke-dasharray="none" height="288"/>
<rect x="465" y="1140" clip-path="url(#clipPath1)" fill="teal" width="10" stroke-dasharray="none" height="191" stroke="none"/>
<rect x="465" y="1140" clip-path="url(#clipPath1)" fill="none" width="10" stroke-dasharray="none" height="191"/>
<rect x="449" y="1004" clip-path="url(#clipPath1)" fill="rgb(160,0,0)" width="10" stroke-dasharray="none" height="327" stroke="none"/>
<rect x="449" y="1004" clip-path="url(#clipPath1)" fill="none" width="10" stroke-dasharray="none" height="327"/>
<rect x="433" y="965" clip-path="url(#clipPath1)" fill="rgb(169,169,169)" width="10" stroke-dasharray="none" height="366" stroke="none"/>
<rect x="433" y="965" clip-path="url(#clipPath1)" fill="none" width="10" stroke-dasharray="none" height="366"/>
<rect x="417" y="967" clip-path="url(#clipPath1)" fill="green" width="10" stroke-dasharray="none" height="364" stroke="none"/>
<rect x="417" y="967" clip-path="url(#clipPath1)" fill="none" width="10" stroke-dasharray="none" height="364"/>
<rect x="401" y="1010" clip-path="url(#clipPath1)" fill="rgb(255,165,0)" width="10" stroke-dasharray="none" height="321" stroke="none"/>
<rect x="401" y="1010" clip-path="url(#clipPath1)" fill="none" width="10" stroke-dasharray="none" height="321"/>
<rect x="385" y="1033" clip-path="url(#clipPath1)" fill="rgb(0,100,0)" width="10" stroke-dasharray="none" height="298" stroke="none"/>
<rect x="385" y="1033" clip-path="url(#clipPath1)" fill="none" width="10" stroke-dasharray="none" height="298"/>
<rect x="369" y="564" clip-path="url(#clipPath1)" fill="rgb(238,0,0)" width="10" stroke-dasharray="none" height="767" stroke="none"/>
<rect x="369" y="564" clip-path="url(#clipPath1)" fill="none" width="10" stroke-dasharray="none" height="767"/>
<rect x="352" y="349" clip-path="url(#clipPath1)" fill="rgb(0,0,139)" width="10" stroke-dasharray="none" height="982" stroke="none"/>
<rect x="352" y="349" clip-path="url(#clipPath1)" fill="none" width="10" stroke-dasharray="none" height="982"/>
<rect x="282" y="585" clip-path="url(#clipPath1)" fill="rgb(0,0,139)" width="10" stroke-dasharray="none" height="746" stroke="none"/>
<rect x="282" y="585" clip-path="url(#clipPath1)" fill="none" width="10" stroke-dasharray="none" height="746"/>
<rect x="266" y="897" clip-path="url(#clipPath1)" fill="rgb(160,32,240)" width="10" stroke-dasharray="none" height="434" stroke="none"/>
<rect x="266" y="897" clip-path="url(#clipPath1)" fill="none" width="10" stroke-dasharray="none" height="434"/>
<rect x="250" y="977" clip-path="url(#clipPath1)" fill="black" width="10" stroke-dasharray="none" height="354" stroke="none"/>
<rect x="250" y="977" clip-path="url(#clipPath1)" fill="none" width="10" stroke-dasharray="none" height="354"/>
<rect x="234" y="990" clip-path="url(#clipPath1)" fill="yellow" width="10" stroke-dasharray="none" height="341" stroke="none"/>
<rect x="234" y="990" clip-path="url(#clipPath1)" fill="none" width="10" stroke-dasharray="none" height="341"/>
<rect x="218" y="1014" clip-path="url(#clipPath1)" fill="rgb(128,128,255)" width="10" stroke-dasharray="none" height="317" stroke="none"/>
<rect x="218" y="1014" clip-path="url(#clipPath1)" fill="none" width="10" stroke-dasharray="none" height="317"/>
<rect x="202" y="1059" clip-path="url(#clipPath1)" fill="olive" width="10" stroke-dasharray="none" height="272" stroke="none"/>
<rect x="202" y="1059" clip-path="url(#clipPath1)" fill="none" width="10" stroke-dasharray="none" height="272"/>
<rect x="185" y="1070" clip-path="url(#clipPath1)" fill="aqua" width="10" stroke-dasharray="none" height="261" stroke="none"/>
<rect x="185" y="1070" clip-path="url(#clipPath1)" fill="none" width="10" stroke-dasharray="none" height="261"/>
<rect x="169" y="1097" clip-path="url(#clipPath1)" fill="teal" width="10" stroke-dasharray="none" height="234" stroke="none"/>
<rect x="169" y="1097" clip-path="url(#clipPath1)" fill="none" width="10" stroke-dasharray="none" height="234"/>
<rect x="153" y="1049" clip-path="url(#clipPath1)" fill="rgb(160,0,0)" width="10" stroke-dasharray="none" height="282" stroke="none"/>
<rect x="153" y="1049" clip-path="url(#clipPath1)" fill="none" width="10" stroke-dasharray="none" height="282"/>
<rect x="137" y="973" clip-path="url(#clipPath1)" fill="rgb(169,169,169)" width="10" stroke-dasharray="none" height="358" stroke="none"/>
<rect x="137" y="973" clip-path="url(#clipPath1)" fill="none" width="10" stroke-dasharray="none" height="358"/>
<rect x="121" y="1026" clip-path="url(#clipPath1)" fill="green" width="10" stroke-dasharray="none" height="305" stroke="none"/>
<rect x="121" y="1026" clip-path="url(#clipPath1)" fill="none" width="10" stroke-dasharray="none" height="305"/>
<rect x="105" y="1003" clip-path="url(#clipPath1)" fill="rgb(255,165,0)" width="10" stroke-dasharray="none" height="328" stroke="none"/>
<rect x="105" y="1003" clip-path="url(#clipPath1)" fill="none" width="10" stroke-dasharray="none" height="328"/>
<rect x="89" y="983" clip-path="url(#clipPath1)" fill="rgb(0,100,0)" width="10" stroke-dasharray="none" height="348" stroke="none"/>
<rect x="89" y="983" clip-path="url(#clipPath1)" fill="none" width="10" stroke-dasharray="none" height="348"/>
<rect x="72" y="515" clip-path="url(#clipPath1)" fill="rgb(238,0,0)" width="10" stroke-dasharray="none" height="816" stroke="none"/>
<rect x="72" y="515" clip-path="url(#clipPath1)" fill="none" width="10" stroke-dasharray="none" height="816"/>
<rect x="56" y="130" clip-path="url(#clipPath1)" fill="rgb(0,0,139)" width="10" stroke-dasharray="none" height="1201" stroke="none"/>
<rect x="56" y="130" clip-path="url(#clipPath1)" fill="none" width="10" stroke-dasharray="none" height="1201"/>
<rect x="46" y="10" clip-path="url(#clipPath2)" fill="none" width="2035" stroke-dasharray="none" height="1322" stroke="black"/>
<line clip-path="url(#clipPath2)" fill="none" x1="47" x2="2080" y1="1332" y2="1332" stroke-dasharray="none"/>
</g>
<g text-rendering="geometricPrecision" font-size="13" font-family="'Arial'" stroke-linecap="butt">
<line clip-path="url(#clipPath2)" fill="none" x1="44" x2="44" y1="10" y2="1332"/>
<line clip-path="url(#clipPath2)" fill="none" x1="2083" x2="2083" y1="10" y2="1332"/>
<line clip-path="url(#clipPath2)" fill="none" x1="40" x2="44" y1="1332" y2="1332"/>
<line clip-path="url(#clipPath2)" fill="none" x1="2087" x2="2083" y1="1332" y2="1332"/>
<text x="18" font-size="10" y="1333" clip-path="url(#clipPath2)" stroke="none" xml:space="preserve">0.0</text>
<text x="2090" font-size="10" y="1333" clip-path="url(#clipPath2)" stroke="none" xml:space="preserve">0.0</text>
<line clip-path="url(#clipPath2)" fill="none" x1="42" x2="44" y1="1316" y2="1316"/>
<line clip-path="url(#clipPath2)" fill="none" x1="2085" x2="2083" y1="1316" y2="1316"/>
<line clip-path="url(#clipPath2)" fill="none" x1="42" x2="44" y1="1301" y2="1301"/>
<line clip-path="url(#clipPath2)" fill="none" x1="2085" x2="2083" y1="1301" y2="1301"/>
<line clip-path="url(#clipPath2)" fill="none" x1="42" x2="44" y1="1286" y2="1286"/>
<line clip-path="url(#clipPath2)" fill="none" x1="2085" x2="2083" y1="1286" y2="1286"/>
<line clip-path="url(#clipPath2)" fill="none" x1="42" x2="44" y1="1271" y2="1271"/>
<line clip-path="url(#clipPath2)" fill="none" x1="2085" x2="2083" y1="1271" y2="1271"/>
<line clip-path="url(#clipPath2)" fill="none" x1="40" x2="44" y1="1256" y2="1256"/>
<line clip-path="url(#clipPath2)" fill="none" x1="2087" x2="2083" y1="1256" y2="1256"/>
<text x="11" font-size="10" y="1257" clip-path="url(#clipPath2)" stroke="none" xml:space="preserve">0.05</text>
<text x="2090" font-size="10" y="1257" clip-path="url(#clipPath2)" stroke="none" xml:space="preserve">0.05</text>
<line clip-path="url(#clipPath2)" fill="none" x1="42" x2="44" y1="1241" y2="1241"/>
<line clip-path="url(#clipPath2)" fill="none" x1="2085" x2="2083" y1="1241" y2="1241"/>
<line clip-path="url(#clipPath2)" fill="none" x1="42" x2="44" y1="1226" y2="1226"/>
<line clip-path="url(#clipPath2)" fill="none" x1="2085" x2="2083" y1="1226" y2="1226"/>
<line clip-path="url(#clipPath2)" fill="none" x1="42" x2="44" y1="1211" y2="1211"/>
<line clip-path="url(#clipPath2)" fill="none" x1="2085" x2="2083" y1="1211" y2="1211"/>
<line clip-path="url(#clipPath2)" fill="none" x1="42" x2="44" y1="1196" y2="1196"/>
<line clip-path="url(#clipPath2)" fill="none" x1="2085" x2="2083" y1="1196" y2="1196"/>
<line clip-path="url(#clipPath2)" fill="none" x1="40" x2="44" y1="1181" y2="1181"/>
<line clip-path="url(#clipPath2)" fill="none" x1="2087" x2="2083" y1="1181" y2="1181"/>
<text x="11" font-size="10" y="1182" clip-path="url(#clipPath2)" stroke="none" xml:space="preserve">0.10</text>
<text x="2090" font-size="10" y="1182" clip-path="url(#clipPath2)" stroke="none" xml:space="preserve">0.10</text>
<line clip-path="url(#clipPath2)" fill="none" x1="42" x2="44" y1="1166" y2="1166"/>
<line clip-path="url(#clipPath2)" fill="none" x1="2085" x2="2083" y1="1166" y2="1166"/>
<line clip-path="url(#clipPath2)" fill="none" x1="42" x2="44" y1="1151" y2="1151"/>
<line clip-path="url(#clipPath2)" fill="none" x1="2085" x2="2083" y1="1151" y2="1151"/>
<line clip-path="url(#clipPath2)" fill="none" x1="42" x2="44" y1="1136" y2="1136"/>
<line clip-path="url(#clipPath2)" fill="none" x1="2085" x2="2083" y1="1136" y2="1136"/>
<line clip-path="url(#clipPath2)" fill="none" x1="42" x2="44" y1="1121" y2="1121"/>
<line clip-path="url(#clipPath2)" fill="none" x1="2085" x2="2083" y1="1121" y2="1121"/>
<line clip-path="url(#clipPath2)" fill="none" x1="40" x2="44" y1="1106" y2="1106"/>
<line clip-path="url(#clipPath2)" fill="none" x1="2087" x2="2083" y1="1106" y2="1106"/>
<text x="11" font-size="10" y="1107" clip-path="url(#clipPath2)" stroke="none" xml:space="preserve">0.15</text>
<text x="2090" font-size="10" y="1107" clip-path="url(#clipPath2)" stroke="none" xml:space="preserve">0.15</text>
<line clip-path="url(#clipPath2)" fill="none" x1="42" x2="44" y1="1091" y2="1091"/>
<line clip-path="url(#clipPath2)" fill="none" x1="2085" x2="2083" y1="1091" y2="1091"/>
<line clip-path="url(#clipPath2)" fill="none" x1="42" x2="44" y1="1076" y2="1076"/>
<line clip-path="url(#clipPath2)" fill="none" x1="2085" x2="2083" y1="1076" y2="1076"/>
<line clip-path="url(#clipPath2)" fill="none" x1="42" x2="44" y1="1060" y2="1060"/>
<line clip-path="url(#clipPath2)" fill="none" x1="2085" x2="2083" y1="1060" y2="1060"/>
<line clip-path="url(#clipPath2)" fill="none" x1="42" x2="44" y1="1045" y2="1045"/>
<line clip-path="url(#clipPath2)" fill="none" x1="2085" x2="2083" y1="1045" y2="1045"/>
<line clip-path="url(#clipPath2)" fill="none" x1="40" x2="44" y1="1030" y2="1030"/>
<line clip-path="url(#clipPath2)" fill="none" x1="2087" x2="2083" y1="1030" y2="1030"/>
<text x="11" font-size="10" y="1031" clip-path="url(#clipPath2)" stroke="none" xml:space="preserve">0.20</text>
<text x="2090" font-size="10" y="1031" clip-path="url(#clipPath2)" stroke="none" xml:space="preserve">0.20</text>
<line clip-path="url(#clipPath2)" fill="none" x1="42" x2="44" y1="1015" y2="1015"/>
<line clip-path="url(#clipPath2)" fill="none" x1="2085" x2="2083" y1="1015" y2="1015"/>
<line clip-path="url(#clipPath2)" fill="none" x1="42" x2="44" y1="1000" y2="1000"/>
<line clip-path="url(#clipPath2)" fill="none" x1="2085" x2="2083" y1="1000" y2="1000"/>
<line clip-path="url(#clipPath2)" fill="none" x1="42" x2="44" y1="985" y2="985"/>
<line clip-path="url(#clipPath2)" fill="none" x1="2085" x2="2083" y1="985" y2="985"/>
<line clip-path="url(#clipPath2)" fill="none" x1="42" x2="44" y1="970" y2="970"/>
<line clip-path="url(#clipPath2)" fill="none" x1="2085" x2="2083" y1="970" y2="970"/>
<line clip-path="url(#clipPath2)" fill="none" x1="40" x2="44" y1="955" y2="955"/>
<line clip-path="url(#clipPath2)" fill="none" x1="2087" x2="2083" y1="955" y2="955"/>
<text x="11" font-size="10" y="956" clip-path="url(#clipPath2)" stroke="none" xml:space="preserve">0.25</text>
<text x="2090" font-size="10" y="956" clip-path="url(#clipPath2)" stroke="none" xml:space="preserve">0.25</text>
<line clip-path="url(#clipPath2)" fill="none" x1="42" x2="44" y1="940" y2="940"/>
<line clip-path="url(#clipPath2)" fill="none" x1="2085" x2="2083" y1="940" y2="940"/>
<line clip-path="url(#clipPath2)" fill="none" x1="42" x2="44" y1="925" y2="925"/>
<line clip-path="url(#clipPath2)" fill="none" x1="2085" x2="2083" y1="925" y2="925"/>
<line clip-path="url(#clipPath2)" fill="none" x1="42" x2="44" y1="910" y2="910"/>
<line clip-path="url(#clipPath2)" fill="none" x1="2085" x2="2083" y1="910" y2="910"/>
<line clip-path="url(#clipPath2)" fill="none" x1="42" x2="44" y1="895" y2="895"/>
<line clip-path="url(#clipPath2)" fill="none" x1="2085" x2="2083" y1="895" y2="895"/>
<line clip-path="url(#clipPath2)" fill="none" x1="40" x2="44" y1="880" y2="880"/>
<line clip-path="url(#clipPath2)" fill="none" x1="2087" x2="2083" y1="880" y2="880"/>
<text x="11" font-size="10" y="881" clip-path="url(#clipPath2)" stroke="none" xml:space="preserve">0.30</text>
<text x="2090" font-size="10" y="881" clip-path="url(#clipPath2)" stroke="none" xml:space="preserve">0.30</text>
<line clip-path="url(#clipPath2)" fill="none" x1="42" x2="44" y1="865" y2="865"/>
<line clip-path="url(#clipPath2)" fill="none" x1="2085" x2="2083" y1="865" y2="865"/>
<line clip-path="url(#clipPath2)" fill="none" x1="42" x2="44" y1="850" y2="850"/>
<line clip-path="url(#clipPath2)" fill="none" x1="2085" x2="2083" y1="850" y2="850"/>
<line clip-path="url(#clipPath2)" fill="none" x1="42" x2="44" y1="835" y2="835"/>
<line clip-path="url(#clipPath2)" fill="none" x1="2085" x2="2083" y1="835" y2="835"/>
<line clip-path="url(#clipPath2)" fill="none" x1="42" x2="44" y1="820" y2="820"/>
<line clip-path="url(#clipPath2)" fill="none" x1="2085" x2="2083" y1="820" y2="820"/>
<line clip-path="url(#clipPath2)" fill="none" x1="40" x2="44" y1="805" y2="805"/>
<line clip-path="url(#clipPath2)" fill="none" x1="2087" x2="2083" y1="805" y2="805"/>
<text x="11" font-size="10" y="806" clip-path="url(#clipPath2)" stroke="none" xml:space="preserve">0.35</text>
<text x="2090" font-size="10" y="806" clip-path="url(#clipPath2)" stroke="none" xml:space="preserve">0.35</text>
<line clip-path="url(#clipPath2)" fill="none" x1="42" x2="44" y1="789" y2="789"/>
<line clip-path="url(#clipPath2)" fill="none" x1="2085" x2="2083" y1="789" y2="789"/>
<line clip-path="url(#clipPath2)" fill="none" x1="42" x2="44" y1="774" y2="774"/>
<line clip-path="url(#clipPath2)" fill="none" x1="2085" x2="2083" y1="774" y2="774"/>
<line clip-path="url(#clipPath2)" fill="none" x1="42" x2="44" y1="759" y2="759"/>
<line clip-path="url(#clipPath2)" fill="none" x1="2085" x2="2083" y1="759" y2="759"/>
<line clip-path="url(#clipPath2)" fill="none" x1="42" x2="44" y1="744" y2="744"/>
<line clip-path="url(#clipPath2)" fill="none" x1="2085" x2="2083" y1="744" y2="744"/>
<line clip-path="url(#clipPath2)" fill="none" x1="40" x2="44" y1="729" y2="729"/>
<line clip-path="url(#clipPath2)" fill="none" x1="2087" x2="2083" y1="729" y2="729"/>
<text x="11" font-size="10" y="730" clip-path="url(#clipPath2)" stroke="none" xml:space="preserve">0.40</text>
<text x="2090" font-size="10" y="730" clip-path="url(#clipPath2)" stroke="none" xml:space="preserve">0.40</text>
<line clip-path="url(#clipPath2)" fill="none" x1="42" x2="44" y1="714" y2="714"/>
<line clip-path="url(#clipPath2)" fill="none" x1="2085" x2="2083" y1="714" y2="714"/>
<line clip-path="url(#clipPath2)" fill="none" x1="42" x2="44" y1="699" y2="699"/>
<line clip-path="url(#clipPath2)" fill="none" x1="2085" x2="2083" y1="699" y2="699"/>
<line clip-path="url(#clipPath2)" fill="none" x1="42" x2="44" y1="684" y2="684"/>
<line clip-path="url(#clipPath2)" fill="none" x1="2085" x2="2083" y1="684" y2="684"/>
<line clip-path="url(#clipPath2)" fill="none" x1="42" x2="44" y1="669" y2="669"/>
<line clip-path="url(#clipPath2)" fill="none" x1="2085" x2="2083" y1="669" y2="669"/>
<line clip-path="url(#clipPath2)" fill="none" x1="40" x2="44" y1="654" y2="654"/>
<line clip-path="url(#clipPath2)" fill="none" x1="2087" x2="2083" y1="654" y2="654"/>
<text x="11" font-size="10" y="655" clip-path="url(#clipPath2)" stroke="none" xml:space="preserve">0.45</text>
<text x="2090" font-size="10" y="655" clip-path="url(#clipPath2)" stroke="none" xml:space="preserve">0.45</text>
<line clip-path="url(#clipPath2)" fill="none" x1="42" x2="44" y1="639" y2="639"/>
<line clip-path="url(#clipPath2)" fill="none" x1="2085" x2="2083" y1="639" y2="639"/>
<line clip-path="url(#clipPath2)" fill="none" x1="42" x2="44" y1="624" y2="624"/>
<line clip-path="url(#clipPath2)" fill="none" x1="2085" x2="2083" y1="624" y2="624"/>
<line clip-path="url(#clipPath2)" fill="none" x1="42" x2="44" y1="609" y2="609"/>
<line clip-path="url(#clipPath2)" fill="none" x1="2085" x2="2083" y1="609" y2="609"/>
<line clip-path="url(#clipPath2)" fill="none" x1="42" x2="44" y1="594" y2="594"/>
<line clip-path="url(#clipPath2)" fill="none" x1="2085" x2="2083" y1="594" y2="594"/>
<line clip-path="url(#clipPath2)" fill="none" x1="40" x2="44" y1="579" y2="579"/>
<line clip-path="url(#clipPath2)" fill="none" x1="2087" x2="2083" y1="579" y2="579"/>
<text x="11" font-size="10" y="580" clip-path="url(#clipPath2)" stroke="none" xml:space="preserve">0.50</text>
<text x="2090" font-size="10" y="580" clip-path="url(#clipPath2)" stroke="none" xml:space="preserve">0.50</text>
<line clip-path="url(#clipPath2)" fill="none" x1="42" x2="44" y1="564" y2="564"/>
<line clip-path="url(#clipPath2)" fill="none" x1="2085" x2="2083" y1="564" y2="564"/>
<line clip-path="url(#clipPath2)" fill="none" x1="42" x2="44" y1="549" y2="549"/>
<line clip-path="url(#clipPath2)" fill="none" x1="2085" x2="2083" y1="549" y2="549"/>
<line clip-path="url(#clipPath2)" fill="none" x1="42" x2="44" y1="534" y2="534"/>
<line clip-path="url(#clipPath2)" fill="none" x1="2085" x2="2083" y1="534" y2="534"/>
<line clip-path="url(#clipPath2)" fill="none" x1="42" x2="44" y1="518" y2="518"/>
<line clip-path="url(#clipPath2)" fill="none" x1="2085" x2="2083" y1="518" y2="518"/>
<line clip-path="url(#clipPath2)" fill="none" x1="40" x2="44" y1="503" y2="503"/>
<line clip-path="url(#clipPath2)" fill="none" x1="2087" x2="2083" y1="503" y2="503"/>
<text x="11" font-size="10" y="504" clip-path="url(#clipPath2)" stroke="none" xml:space="preserve">0.55</text>
<text x="2090" font-size="10" y="504" clip-path="url(#clipPath2)" stroke="none" xml:space="preserve">0.55</text>
<line clip-path="url(#clipPath2)" fill="none" x1="42" x2="44" y1="488" y2="488"/>
<line clip-path="url(#clipPath2)" fill="none" x1="2085" x2="2083" y1="488" y2="488"/>
<line clip-path="url(#clipPath2)" fill="none" x1="42" x2="44" y1="473" y2="473"/>
<line clip-path="url(#clipPath2)" fill="none" x1="2085" x2="2083" y1="473" y2="473"/>
<line clip-path="url(#clipPath2)" fill="none" x1="42" x2="44" y1="458" y2="458"/>
<line clip-path="url(#clipPath2)" fill="none" x1="2085" x2="2083" y1="458" y2="458"/>
<line clip-path="url(#clipPath2)" fill="none" x1="42" x2="44" y1="443" y2="443"/>
<line clip-path="url(#clipPath2)" fill="none" x1="2085" x2="2083" y1="443" y2="443"/>
<line clip-path="url(#clipPath2)" fill="none" x1="40" x2="44" y1="428" y2="428"/>
<line clip-path="url(#clipPath2)" fill="none" x1="2087" x2="2083" y1="428" y2="428"/>
<text x="11" font-size="10" y="429" clip-path="url(#clipPath2)" stroke="none" xml:space="preserve">0.60</text>
<text x="2090" font-size="10" y="429" clip-path="url(#clipPath2)" stroke="none" xml:space="preserve">0.60</text>
<line clip-path="url(#clipPath2)" fill="none" x1="42" x2="44" y1="413" y2="413"/>
<line clip-path="url(#clipPath2)" fill="none" x1="2085" x2="2083" y1="413" y2="413"/>
<line clip-path="url(#clipPath2)" fill="none" x1="42" x2="44" y1="398" y2="398"/>
<line clip-path="url(#clipPath2)" fill="none" x1="2085" x2="2083" y1="398" y2="398"/>
<line clip-path="url(#clipPath2)" fill="none" x1="42" x2="44" y1="383" y2="383"/>
<line clip-path="url(#clipPath2)" fill="none" x1="2085" x2="2083" y1="383" y2="383"/>
<line clip-path="url(#clipPath2)" fill="none" x1="42" x2="44" y1="368" y2="368"/>
<line clip-path="url(#clipPath2)" fill="none" x1="2085" x2="2083" y1="368" y2="368"/>
<line clip-path="url(#clipPath2)" fill="none" x1="40" x2="44" y1="353" y2="353"/>
<line clip-path="url(#clipPath2)" fill="none" x1="2087" x2="2083" y1="353" y2="353"/>
<text x="11" font-size="10" y="354" clip-path="url(#clipPath2)" stroke="none" xml:space="preserve">0.65</text>
<text x="2090" font-size="10" y="354" clip-path="url(#clipPath2)" stroke="none" xml:space="preserve">0.65</text>
<line clip-path="url(#clipPath2)" fill="none" x1="42" x2="44" y1="338" y2="338"/>
<line clip-path="url(#clipPath2)" fill="none" x1="2085" x2="2083" y1="338" y2="338"/>
<line clip-path="url(#clipPath2)" fill="none" x1="42" x2="44" y1="323" y2="323"/>
<line clip-path="url(#clipPath2)" fill="none" x1="2085" x2="2083" y1="323" y2="323"/>
<line clip-path="url(#clipPath2)" fill="none" x1="42" x2="44" y1="308" y2="308"/>
<line clip-path="url(#clipPath2)" fill="none" x1="2085" x2="2083" y1="308" y2="308"/>
<line clip-path="url(#clipPath2)" fill="none" x1="42" x2="44" y1="293" y2="293"/>
<line clip-path="url(#clipPath2)" fill="none" x1="2085" x2="2083" y1="293" y2="293"/>
<line clip-path="url(#clipPath2)" fill="none" x1="40" x2="44" y1="278" y2="278"/>
<line clip-path="url(#clipPath2)" fill="none" x1="2087" x2="2083" y1="278" y2="278"/>
<text x="11" font-size="10" y="279" clip-path="url(#clipPath2)" stroke="none" xml:space="preserve">0.70</text>
<text x="2090" font-size="10" y="279" clip-path="url(#clipPath2)" stroke="none" xml:space="preserve">0.70</text>
<line clip-path="url(#clipPath2)" fill="none" x1="42" x2="44" y1="262" y2="262"/>
<line clip-path="url(#clipPath2)" fill="none" x1="2085" x2="2083" y1="262" y2="262"/>
<line clip-path="url(#clipPath2)" fill="none" x1="42" x2="44" y1="247" y2="247"/>
<line clip-path="url(#clipPath2)" fill="none" x1="2085" x2="2083" y1="247" y2="247"/>
<line clip-path="url(#clipPath2)" fill="none" x1="42" x2="44" y1="232" y2="232"/>
<line clip-path="url(#clipPath2)" fill="none" x1="2085" x2="2083" y1="232" y2="232"/>
<line clip-path="url(#clipPath2)" fill="none" x1="42" x2="44" y1="217" y2="217"/>
<line clip-path="url(#clipPath2)" fill="none" x1="2085" x2="2083" y1="217" y2="217"/>
<line clip-path="url(#clipPath2)" fill="none" x1="40" x2="44" y1="202" y2="202"/>
<line clip-path="url(#clipPath2)" fill="none" x1="2087" x2="2083" y1="202" y2="202"/>
<text x="11" font-size="10" y="203" clip-path="url(#clipPath2)" stroke="none" xml:space="preserve">0.75</text>
<text x="2090" font-size="10" y="203" clip-path="url(#clipPath2)" stroke="none" xml:space="preserve">0.75</text>
<line clip-path="url(#clipPath2)" fill="none" x1="42" x2="44" y1="187" y2="187"/>
<line clip-path="url(#clipPath2)" fill="none" x1="2085" x2="2083" y1="187" y2="187"/>
<line clip-path="url(#clipPath2)" fill="none" x1="42" x2="44" y1="172" y2="172"/>
<line clip-path="url(#clipPath2)" fill="none" x1="2085" x2="2083" y1="172" y2="172"/>
<line clip-path="url(#clipPath2)" fill="none" x1="42" x2="44" y1="157" y2="157"/>
<line clip-path="url(#clipPath2)" fill="none" x1="2085" x2="2083" y1="157" y2="157"/>
<line clip-path="url(#clipPath2)" fill="none" x1="42" x2="44" y1="142" y2="142"/>
<line clip-path="url(#clipPath2)" fill="none" x1="2085" x2="2083" y1="142" y2="142"/>
<line clip-path="url(#clipPath2)" fill="none" x1="40" x2="44" y1="127" y2="127"/>
<line clip-path="url(#clipPath2)" fill="none" x1="2087" x2="2083" y1="127" y2="127"/>
<text x="11" font-size="10" y="128" clip-path="url(#clipPath2)" stroke="none" xml:space="preserve">0.80</text>
<text x="2090" font-size="10" y="128" clip-path="url(#clipPath2)" stroke="none" xml:space="preserve">0.80</text>
<line clip-path="url(#clipPath2)" fill="none" x1="42" x2="44" y1="112" y2="112"/>
<line clip-path="url(#clipPath2)" fill="none" x1="2085" x2="2083" y1="112" y2="112"/>
<line clip-path="url(#clipPath2)" fill="none" x1="42" x2="44" y1="97" y2="97"/>
<line clip-path="url(#clipPath2)" fill="none" x1="2085" x2="2083" y1="97" y2="97"/>
<line clip-path="url(#clipPath2)" fill="none" x1="42" x2="44" y1="82" y2="82"/>
<line clip-path="url(#clipPath2)" fill="none" x1="2085" x2="2083" y1="82" y2="82"/>
<line clip-path="url(#clipPath2)" fill="none" x1="42" x2="44" y1="67" y2="67"/>
<line clip-path="url(#clipPath2)" fill="none" x1="2085" x2="2083" y1="67" y2="67"/>
<line clip-path="url(#clipPath2)" fill="none" x1="40" x2="44" y1="52" y2="52"/>
<line clip-path="url(#clipPath2)" fill="none" x1="2087" x2="2083" y1="52" y2="52"/>
<text x="11" font-size="10" y="53" clip-path="url(#clipPath2)" stroke="none" xml:space="preserve">0.85</text>
<text x="2090" font-size="10" y="53" clip-path="url(#clipPath2)" stroke="none" xml:space="preserve">0.85</text>
<line clip-path="url(#clipPath2)" fill="none" x1="42" x2="44" y1="37" y2="37"/>
<line clip-path="url(#clipPath2)" fill="none" x1="2085" x2="2083" y1="37" y2="37"/>
<line clip-path="url(#clipPath2)" fill="none" x1="42" x2="44" y1="22" y2="22"/>
<line clip-path="url(#clipPath2)" fill="none" x1="2085" x2="2083" y1="22" y2="22"/>
<line clip-path="url(#clipPath3)" fill="none" x1="56" x2="292" y1="1336" y2="1336"/>
<line clip-path="url(#clipPath3)" fill="none" x1="352" x2="588" y1="1336" y2="1336"/>
<line clip-path="url(#clipPath3)" fill="none" x1="648" x2="885" y1="1336" y2="1336"/>
<line clip-path="url(#clipPath3)" fill="none" x1="945" x2="1181" y1="1336" y2="1336"/>
<line clip-path="url(#clipPath3)" fill="none" x1="1241" x2="1477" y1="1336" y2="1336"/>
<line clip-path="url(#clipPath3)" fill="none" x1="1537" x2="1773" y1="1336" y2="1336"/>
<line clip-path="url(#clipPath3)" fill="none" x1="1833" x2="2069" y1="1336" y2="1336"/>
<text x="56" font-size="10" y="1347" clip-path="url(#clipPath3)" stroke="none" xml:space="preserve">DDOSAngriffLarge</text>
<text x="352" font-size="10" y="1347" clip-path="url(#clipPath3)" stroke="none" xml:space="preserve">DDOSAngriffLargeDisable</text>
<text x="648" font-size="10" y="1347" clip-path="url(#clipPath3)" stroke="none" xml:space="preserve">DDOSAngriffMedium</text>
<text x="945" font-size="10" y="1347" clip-path="url(#clipPath3)" stroke="none" xml:space="preserve">DDOSAngriffMediumDisable</text>
<text x="1241" font-size="10" y="1347" clip-path="url(#clipPath3)" stroke="none" xml:space="preserve">DDOSAngriffSmall</text>
<text x="1537" font-size="10" y="1347" clip-path="url(#clipPath3)" stroke="none" xml:space="preserve">DDOSAngriffSmallDisable</text>
<text x="1833" font-size="10" y="1347" clip-path="url(#clipPath3)" stroke="none" xml:space="preserve">KeinAngriff</text>
</g>
</g>
</svg>
